<?xml version="1.0" encoding="iso-8859-1"?>
<!-- Generator: Adobe Illustrator 19.0.0, SVG Export Plug-In . SVG Version: 6.00 Build 0)  -->
<svg version="1.1" id="Layer_1" xmlns="http://www.w3.org/2000/svg" xmlns:xlink="http://www.w3.org/1999/xlink" x="0px" y="0px"
	 viewBox="0 0 470.59 470.59" style="enable-background:new 0 0 470.59 470.59;" xml:space="preserve">
<g>
	<g>
		<path d="M453.775,106.341C442.914,95.481,428.474,89.5,413.116,89.5c-15.358,0-29.798,5.981-40.658,16.841L158.784,320.016
			l-38.508-38.508c-2.93-2.929-7.678-2.929-10.607,0c-2.929,2.929-2.929,7.678,0,10.606l38.509,38.509l-31.82,31.82l-38.811-38.811
			c-2.93-2.929-7.678-2.929-10.607,0c-2.929,2.929-2.929,7.678,0,10.606l38.291,38.291c-15.033,10.079-35.624,8.489-48.896-4.783
			c-15.087-15.086-15.087-39.634-0.007-54.714L178.71,190.968c30.32-30.321,74.754-41.892,115.968-30.198
			c3.284,0.931,6.785-0.473,8.515-3.417c1.729-2.945,1.25-6.687-1.164-9.101L189.447,35.671c-2.416-2.416-6.156-2.894-9.102-1.164
			c-2.944,1.729-4.35,5.229-3.417,8.515c11.693,41.21,0.122,85.646-30.199,115.967L24.514,281.206C8.706,297.013,0,318.03,0,340.385
			c0,22.355,8.706,43.373,24.514,59.18c32.634,32.633,85.729,32.631,118.36,0l79.55-79.55l17.677,17.677l-53.033,53.033
			l-1.767-1.767c-2.93-2.929-7.678-2.929-10.607,0c-2.929,2.929-2.929,7.678,0,10.606l28.281,28.28
			c0.008,0.008,7.075,7.075,7.075,7.075c1.465,1.464,3.385,2.197,5.304,2.197s3.839-0.732,5.304-2.197
			c2.929-2.929,2.929-7.678,0-10.606l-1.768-1.768l234.887-234.887C476.194,165.239,476.194,128.761,453.775,106.341z
			 M233.031,309.409l10.606-10.606l17.677,17.678l-10.606,10.606L233.031,309.409z M254.244,288.196l150.034-150.035
			c2.354-2.355,5.493-3.652,8.838-3.652c3.346,0,6.484,1.297,8.839,3.652c2.355,2.355,3.652,5.494,3.652,8.839
			c0,3.345-1.297,6.484-3.652,8.839L271.921,305.874L254.244,288.196z M208.281,411.939l-10.606-10.606L256.008,343
			c0.008-0.008,21.212-21.212,21.212-21.212c0.01-0.01,155.342-155.343,155.342-155.343c5.188-5.188,8.046-12.094,8.046-19.446
			c0-7.351-2.857-14.257-8.045-19.445c-5.188-5.188-12.094-8.045-19.445-8.045s-14.259,2.857-19.446,8.045L132.267,388.959
			c-26.784,26.784-70.362,26.783-97.146,0C22.146,375.984,15,358.734,15,340.385s7.146-35.599,20.121-48.573l122.216-122.217
			c28.238-28.238,42.042-67.342,38.538-106.282l78.51,78.509c-38.93-3.494-78.044,10.301-106.276,38.532L45.727,302.419
			C35.6,312.546,30.023,326.03,30.023,340.386s5.577,27.839,15.704,37.967c20.937,20.936,55,20.934,75.935,0l42.422-42.422
			c0.01-0.01,218.983-218.983,218.983-218.983c8.026-8.027,18.699-12.448,30.051-12.448c11.353,0,22.025,4.421,30.052,12.448
			c8.027,8.027,12.448,18.7,12.448,30.052s-4.421,22.025-12.448,30.052L208.281,411.939z"/>
	</g>
</g>
<g>
</g>
<g>
</g>
<g>
</g>
<g>
</g>
<g>
</g>
<g>
</g>
<g>
</g>
<g>
</g>
<g>
</g>
<g>
</g>
<g>
</g>
<g>
</g>
<g>
</g>
<g>
</g>
<g>
</g>
</svg>
