<?xml version="1.0" encoding="iso-8859-1"?>
<!-- Generator: Adobe Illustrator 19.0.0, SVG Export Plug-In . SVG Version: 6.00 Build 0)  -->
<svg version="1.1" id="Layer_1" xmlns="http://www.w3.org/2000/svg" xmlns:xlink="http://www.w3.org/1999/xlink" x="0px" y="0px"
	 viewBox="0 0 512.001 512.001" style="enable-background:new 0 0 512.001 512.001;" xml:space="preserve">
<g>
	<g>
		<g>
			<path d="M155.802,344.05h-15.723c0,65.006,54.918,119.924,119.924,119.924V448.25C203.519,448.25,155.802,400.532,155.802,344.05
				z"/>
			<rect x="28.016" y="247.994" width="15.723" height="96.057"/>
			<polygon points="468.262,183.96 468.262,192.106 460.114,192.106 460.114,207.829 468.262,207.829 468.262,215.978 
				483.985,215.978 483.985,183.96 			"/>
			<polygon points="468.262,240.134 460.114,240.134 460.114,255.857 468.262,255.857 468.262,264.005 483.985,264.005 
				483.985,231.986 468.262,231.986 			"/>
			<polygon points="468.262,288.16 460.114,288.16 460.114,303.883 468.262,303.883 468.262,312.031 483.985,312.031 
				483.985,280.014 468.262,280.014 			"/>
			<polygon points="468.262,336.188 460.114,336.188 460.114,351.911 468.262,351.911 468.262,360.058 483.985,360.058 
				483.985,328.04 468.262,328.04 			"/>
			<rect x="139.935" y="40.02" width="96.057" height="15.723"/>
			<path d="M348.052,104.057c-24.658,0-47.169,9.356-64.179,24.701V47.884c0-17.734,14.427-32.161,32.161-32.161h16.009V0H43.882
				v15.723H59.89c17.734,0,32.161,14.427,32.161,32.161v224.268H67.753v-8.147H52.03v64.036h15.723v-8.148h24.299v16.152
				c0,97.023,78.933,175.956,175.955,175.956c86.705,0,158.955-63.041,173.342-145.693c1.116-4.677,1.889-9.484,2.289-14.396h8.472
				v-15.723h-8.147v-0.144v-32.161h8.147v-15.723h-8.147v-16.153v-16.152h8.147v-15.723h-8.147V207.83h8.147v-15.723h-8.472
				C439.626,142.885,398.29,104.057,348.052,104.057z M280.6,15.723c-6.052,6.666-10.257,15.036-11.794,24.299h-16.808v15.723
				h16.152v91.234c-10.108,15.192-16.008,33.414-16.008,52.99v72.183H107.774V55.746h16.152V40.023h-16.808
				c-1.537-9.263-5.742-17.634-11.794-24.299H280.6z M67.753,304.17v-16.294h280.299c17.575,0,31.875-14.3,31.875-31.875
				c0-17.575-14.3-31.875-31.875-31.875c-17.576,0-31.875,14.3-31.875,31.875v8.005c0,4.493-3.654,8.147-8.147,8.147h-8.148v-16.152
				c0-26.561,21.609-48.17,48.17-48.17c26.56,0,48.169,21.609,48.169,48.17c0,26.56-21.609,48.169-48.169,48.169H67.753z
				 M330.468,272.152c0.927-2.544,1.432-5.287,1.432-8.147v-8.005c0-8.907,7.245-16.152,16.152-16.152
				c8.907,0,16.152,7.245,16.152,16.152c0,8.907-7.245,16.152-16.152,16.152H330.468z M299.881,214.095v-14.127
				c0-26.56,21.609-48.169,48.17-48.169c26.56,0,48.169,21.609,48.169,48.169v14.127c-11.722-13.458-28.963-21.988-48.169-21.988
				C328.845,192.106,311.603,200.638,299.881,214.095z M340.046,375.924h16.009c10.408,0,19.276-6.698,22.534-16.008h14.933
				c-6.575,18.787-24.469,32.302-45.472,32.302c-21.003,0-38.898-13.517-45.473-32.302h14.934
				C320.771,369.225,329.639,375.924,340.046,375.924z M332.042,353.547v-2.986c0.703-3.781,4.022-6.655,8.004-6.655h16.009
				c4.493,0,8.147,3.655,8.147,8.148c0,4.493-3.654,8.147-8.147,8.147h-16.009C336.064,360.201,332.747,357.328,332.042,353.547z
				 M378.59,344.192c-3.258-9.311-12.126-16.009-22.534-16.009h-16.009c-10.408,0-19.276,6.699-22.533,16.009h-17.628
				c0-0.048-0.003-0.095-0.003-0.144v-24.157h48.17c19.206,0,36.447-8.53,48.169-21.987v46.144c0,0.048-0.004,0.095-0.004,0.144
				H378.59z M268.007,496.277c-88.352,0-160.231-71.88-160.231-160.233v-16.152h144.367v24.157
				c0,52.885,43.026,95.911,95.911,95.911c20.252,0,39.054-6.315,54.552-17.072C374.033,467.015,324.375,496.277,268.007,496.277z
				 M428.239,272.009L428.239,272.009l0,64.036c0,9.169-0.785,18.157-2.271,26.909c-8.523,35.12-40.212,61.283-77.916,61.283
				c-44.216,0-80.188-35.971-80.188-80.188v-24.157h16.294v24.157c0,35.23,28.663,63.892,63.893,63.892s63.892-28.662,63.892-63.892
				V199.968c0-35.23-28.662-63.892-63.892-63.892s-63.893,28.662-63.893,63.892v72.183h-16.294v-72.183
				c0-44.216,35.971-80.188,80.188-80.188s80.188,35.971,80.188,80.188V272.009z"/>
		</g>
	</g>
</g>
<g>
</g>
<g>
</g>
<g>
</g>
<g>
</g>
<g>
</g>
<g>
</g>
<g>
</g>
<g>
</g>
<g>
</g>
<g>
</g>
<g>
</g>
<g>
</g>
<g>
</g>
<g>
</g>
<g>
</g>
</svg>
