<?xml version="1.0" encoding="iso-8859-1"?>
<!-- Generator: Adobe Illustrator 19.0.0, SVG Export Plug-In . SVG Version: 6.00 Build 0)  -->
<svg version="1.1" id="Layer_1" xmlns="http://www.w3.org/2000/svg" xmlns:xlink="http://www.w3.org/1999/xlink" x="0px" y="0px"
	 viewBox="0 0 512.003 512.003" style="enable-background:new 0 0 512.003 512.003;" xml:space="preserve">
<g>
	<g>
		<path d="M511.984,77.25c-0.14-3.941-1.143-7.832-2.926-11.35c-4.358-8.598-12.29-14.214-21.52-15.509L324.74,27.558
			c-15.517-2.175-29.889,8.673-32.065,24.176c-1.053,7.511,0.882,14.983,5.448,21.04c3.701,4.909,8.773,8.41,14.56,10.122
			c5.803,6.699,26.205,32.282,30.965,65.302c-67.206-34.918-152.142-24.218-208.471,32.11
			c-37.693,37.693-54.946,88.198-51.78,137.627L37.93,286.579l0.504-0.504c3.275-3.275,3.605-8.654,0.43-12.023
			c-3.286-3.488-8.778-3.55-12.143-0.186l-7.929,7.929c-0.001,0.001-0.002,0.001-0.003,0.002L7.582,293.004l-4.97,4.97
			c-3.372,3.372-3.557,9.076-0.104,12.363c1.632,1.553,3.731,2.33,5.83,2.33c1.828,0,3.653-0.596,5.172-1.774l121.668,121.67
			c34.774,34.773,80.451,52.16,126.127,52.16c45.677,0,91.354-17.386,126.128-52.16c46.793-46.792,62.095-113.328,45.919-173.039
			c-6.272-23.152-8.17-47.272-4.835-71.026l0.301-2.143c6.304-44.965,45.815-73.352,55.099-79.452
			c6.032-0.056,11.868-2.02,16.773-5.717C508.115,95.587,512.321,86.855,511.984,77.25z M25.524,298.985l0.246-0.246l60.499,41.724
			c1.734,8.994,4.175,17.876,7.298,26.566L25.524,298.985z M375.472,420.602c-62.949,62.951-165.38,62.952-228.331,0
			s-62.951-165.381,0-228.332c31.475-31.475,72.82-47.213,114.166-47.213c41.345,0,82.69,15.738,114.165,47.213
			C438.424,255.222,438.424,357.65,375.472,420.602z M412.067,184.005l-3.132,22.313c-6.224-9.169-13.382-17.889-21.501-26.008
			c-8.086-8.086-16.77-15.221-25.899-21.427c-0.828-30.572-14.151-56.377-24.84-72.299l123.089,17.262
			C442.323,118.573,417.432,145.726,412.067,184.005z M494.963,80.106c-0.425,3.037-2.008,5.726-4.457,7.572
			c-2.449,1.846-5.475,2.629-8.506,2.202L319.202,67.049c-3.037-0.426-5.726-2.01-7.572-4.458c-1.847-2.448-2.629-5.469-2.202-8.506
			c0.804-5.732,5.732-9.888,11.362-9.888c0.529,0,1.063,0.037,1.601,0.113l162.798,22.833c3.036,0.426,5.725,2.008,7.572,4.458
			C494.606,74.048,495.389,77.069,494.963,80.106z"/>
	</g>
</g>
<g>
	<g>
		<path d="M372.573,222.541c-46.26-61.352-133.808-73.633-195.163-27.372c-61.352,46.259-73.631,133.81-27.371,195.162
			c27.359,36.286,69.151,55.403,111.434,55.403c29.21,0,58.662-9.131,83.729-28.032
			C406.554,371.443,418.833,283.892,372.573,222.541z M217.389,420.683c-20.719-7.927-39.533-21.554-53.845-40.535
			c-6.91-9.166-12.331-18.998-16.308-29.202h20.056c-0.021,0.56-0.03,1.125-0.03,1.691c0,25.182,20.486,45.669,45.668,45.669h4.46
			V420.683z M217.389,350.946v30.445h-4.46c-15.855,0-28.753-12.898-28.753-28.754c0-0.568,0.017-1.131,0.05-1.692h33.164V350.946z
			 M217.389,334.031h-26.366c5.279-6.204,13.14-10.148,21.906-10.148h4.46V334.031z M217.39,306.968h-0.001h-4.46
			c-18.559,0-34.568,11.129-41.705,27.063h-29.195c-4.375-19.04-4.089-38.782,0.612-57.508h74.748V306.968z M288.308,425.853
			c-17.871,4.013-36.346,3.922-54.004-0.06v-27.488h54.004V425.853z M288.308,381.391h-54.004v-30.445h54.004V381.391z
			 M288.308,334.031h-54.004v-10.148h54.004V334.031z M288.308,276.523v30.445h-54.004v-30.445L288.308,276.523L288.308,276.523z
			 M234.57,259.608c1.829-13.123,13.119-23.258,26.737-23.258s24.907,10.135,26.736,23.258H234.57z M335.018,404.196
			c-9.343,7.045-19.378,12.542-29.795,16.539v-22.43h10.066c17.721,0,32.137-14.417,32.137-32.137s-14.416-32.137-32.137-32.137
			h-10.066v-10.148h10.066c17.721,0,32.137-14.417,32.137-32.137c0-17.72-14.416-32.137-32.137-32.137h-10.236
			c-1.908-22.469-20.792-40.173-43.746-40.173c-22.954,0-41.839,17.704-43.747,40.173h-69.344
			c8.064-19.568,21.289-37.295,39.378-50.933c22.027-16.609,47.896-24.628,73.564-24.628c37.146,0,73.872,16.799,97.909,48.678
			C399.712,286.629,388.923,363.552,335.018,404.196z M305.223,381.391v-30.445h10.066c8.393,0,15.222,6.829,15.222,15.222
			s-6.829,15.222-15.222,15.222H305.223z M330.511,291.746c0,8.394-6.829,15.222-15.222,15.222h-10.066v-30.445h10.066v0
			C323.681,276.523,330.511,283.351,330.511,291.746z"/>
	</g>
</g>
<g>
</g>
<g>
</g>
<g>
</g>
<g>
</g>
<g>
</g>
<g>
</g>
<g>
</g>
<g>
</g>
<g>
</g>
<g>
</g>
<g>
</g>
<g>
</g>
<g>
</g>
<g>
</g>
<g>
</g>
</svg>
