<?xml version="1.0" encoding="iso-8859-1"?>
<!-- Generator: Adobe Illustrator 19.0.0, SVG Export Plug-In . SVG Version: 6.00 Build 0)  -->
<svg version="1.1" id="Capa_1" xmlns="http://www.w3.org/2000/svg" xmlns:xlink="http://www.w3.org/1999/xlink" x="0px" y="0px"
	 viewBox="0 0 470.001 470.001" style="enable-background:new 0 0 470.001 470.001;" xml:space="preserve">
<g>
	<path d="M467.804,114.778L355.224,2.198c-2.413-2.414-6.153-2.896-9.102-1.164c-2.944,1.729-4.35,5.229-3.417,8.515
		c11.693,41.211,0.122,85.647-30.198,115.967l-62.755,62.755c-0.011,0.011-14.131,14.131-14.131,14.131l-1.821-1.821
		c-2.929-2.928-7.678-2.928-10.606,0l-5.383,5.383l-10.558-10.559l3.968-3.968c2.929-2.93,2.929-7.678,0-10.607
		c-2.929-2.928-7.678-2.928-10.606,0l-18.544,18.544c-2.929,2.93-2.929,7.678,0,10.607c1.464,1.464,3.384,2.196,5.303,2.196
		s3.839-0.732,5.303-2.196l3.969-3.969l10.558,10.558l-5.383,5.383c-2.929,2.93-2.929,7.678,0,10.607l1.82,1.82l-7.204,7.204
		l-1.821-1.821c-2.929-2.928-7.678-2.928-10.606,0l-5.383,5.383l-10.558-10.559l3.968-3.968c2.929-2.929,2.929-7.678,0-10.606
		c-2.929-2.93-7.678-2.929-10.606-0.001l-18.544,18.543c-2.929,2.929-2.929,7.678,0,10.606c1.464,1.465,3.384,2.197,5.303,2.197
		c1.919,0,3.839-0.732,5.303-2.196l3.969-3.968l10.558,10.558l-5.383,5.383c-2.929,2.93-2.929,7.678,0,10.607l1.821,1.82
		l-7.203,7.203l-1.821-1.821c-1.406-1.406-3.314-2.196-5.303-2.196s-3.897,0.79-5.303,2.196l-5.383,5.383l-10.558-10.558
		l3.969-3.969c2.929-2.93,2.929-7.678,0-10.607c-2.929-2.928-7.678-2.928-10.606,0l-18.544,18.544c-2.929,2.93-2.929,7.678,0,10.607
		c1.464,1.464,3.384,2.196,5.303,2.196s3.839-0.732,5.303-2.196l3.969-3.969l10.558,10.559l-5.383,5.383
		c-2.929,2.93-2.929,7.678,0,10.607l1.821,1.82L14.625,423.398l-1.821-1.821c-2.929-2.928-7.678-2.928-10.606,0
		c-2.929,2.93-2.929,7.678,0,10.607l35.62,35.62c1.464,1.464,3.384,2.196,5.303,2.196s3.839-0.732,5.303-2.196
		c2.929-2.93,2.929-7.678,0-10.607l-1.82-1.82l49.611-49.611c3.544,8.124,8.593,15.558,14.94,21.904
		c13.462,13.462,31.362,20.877,50.401,20.877s36.938-7.415,50.401-20.877l14.123-14.123l8.945,8.945
		c1.407,1.406,3.314,2.196,5.303,2.196s3.896-0.79,5.304-2.196l21.373-21.373c1.406-1.407,2.196-3.314,2.196-5.304
		s-0.79-3.896-2.196-5.304l-8.944-8.944l7.202-7.202l8.944,8.944c1.465,1.464,3.385,2.196,5.304,2.196s3.839-0.732,5.304-2.196
		l21.372-21.372c2.929-2.93,2.929-7.678,0-10.607l-8.944-8.944l7.203-7.203l8.944,8.944c1.465,1.464,3.385,2.196,5.304,2.196
		s3.839-0.732,5.304-2.196l21.372-21.372c2.929-2.93,2.929-7.678,0-10.607l-8.945-8.944l14.123-14.124
		c27.79-27.791,27.79-73.011,0-100.801c-6.409-6.409-13.831-11.429-21.896-14.949l15.835-15.835
		c30.32-30.321,74.756-41.89,115.966-30.198c3.289,0.937,6.786-0.473,8.516-3.417C470.697,120.934,470.218,117.193,467.804,114.778z
		 M333.88,146.887l-21.564,21.563c-3.983-0.681-8.047-1.05-12.17-1.05c-2.992,0-5.952,0.204-8.875,0.565l31.844-31.844
		c28.237-28.238,42.042-67.342,38.538-106.282l78.509,78.509C401.217,104.846,362.116,118.651,333.88,146.887z M121.761,417.063
		c-6.451-6.45-11.208-14.315-13.908-22.935l12.864-12.865c0.886,9.145,4.822,18.047,11.81,25.036
		c8.003,8.003,18.515,12.004,29.027,12.004s21.026-4.002,29.03-12.005l14.123-14.123l10.766,10.766l-14.123,14.122
		c-10.629,10.63-24.762,16.484-39.794,16.484S132.391,427.693,121.761,417.063z M25.232,434.005l110.653-110.652l10.765,10.765
		l-14.112,14.112c-0.01,0.009-96.541,96.54-96.541,96.54L25.232,434.005z M143.134,358.847l14.123-14.123l36.844,36.844
		l-14.122,14.123c-10.158,10.158-26.688,10.16-36.844,0.002C132.976,385.534,132.976,369.004,143.134,358.847z M231.388,397.642
		c-0.01-0.009-92.021-92.021-92.021-92.021l10.766-10.767l100.961,100.961l-10.767,10.767L231.388,397.642z M228.418,273.563
		l7.204-7.203l36.844,36.844l-7.203,7.203L228.418,273.563z M225.015,255.752l-7.204,7.204l-10.765-10.765l7.204-7.204
		L225.015,255.752z M189.237,312.744l7.203-7.202l36.843,36.843l-7.202,7.203L189.237,312.744z M185.832,294.935l-7.203,7.203
		l-10.765-10.766l7.203-7.203L185.832,294.935z M236.688,360.195l7.202-7.202l10.765,10.765l-7.202,7.202L236.688,360.195z
		 M178.55,266.439l10.766-10.766l1.816,1.816c0.007,0.006,99.145,99.145,99.145,99.145L279.51,367.4L178.55,266.439z
		 M275.87,321.014l7.203-7.203l10.765,10.765l-7.203,7.203L275.87,321.014z M217.732,227.256l10.766-10.766l100.961,100.961
		l-10.766,10.766L217.732,227.256z M267.601,234.38l14.123-14.123c10.159-10.159,26.688-10.157,36.845,0
		c10.158,10.157,10.157,26.686-0.001,36.844l-14.123,14.123L267.601,234.38z M315.052,281.831l14.123-14.124
		c16.006-16.007,16.006-42.052,0.001-58.058c-7.744-7.743-18.054-12.008-29.03-12.008c-10.976,0-21.285,4.265-29.029,12.008
		l-14.123,14.123l-10.765-10.765l14.123-14.123c10.629-10.63,24.762-16.484,39.794-16.484s29.165,5.854,39.794,16.484
		c21.942,21.941,21.942,57.646,0,79.588l-14.123,14.123L315.052,281.831z"/>
</g>
<g>
</g>
<g>
</g>
<g>
</g>
<g>
</g>
<g>
</g>
<g>
</g>
<g>
</g>
<g>
</g>
<g>
</g>
<g>
</g>
<g>
</g>
<g>
</g>
<g>
</g>
<g>
</g>
<g>
</g>
</svg>
