<?xml version="1.0" encoding="iso-8859-1"?>
<!-- Generator: Adobe Illustrator 19.0.0, SVG Export Plug-In . SVG Version: 6.00 Build 0)  -->
<svg version="1.1" id="Layer_1" xmlns="http://www.w3.org/2000/svg" xmlns:xlink="http://www.w3.org/1999/xlink" x="0px" y="0px"
	 viewBox="0 0 470 470" style="enable-background:new 0 0 470 470;" xml:space="preserve">
<g>
	<g>
		<g>
			<path d="M462.5,195H7.5c-4.142,0-7.5,3.358-7.5,7.5v260c0,4.142,3.358,7.5,7.5,7.5h455c4.142,0,7.5-3.358,7.5-7.5v-260
				C470,198.358,466.642,195,462.5,195z M136,455H90v-20h7.5c4.142,0,7.5-3.358,7.5-7.5V370h16v57.5c0,4.142,3.358,7.5,7.5,7.5h7.5
				V455z M75,420v-50h15v50H75z M197,455h-46v-20h7.5c4.142,0,7.5-3.358,7.5-7.5V370h31V455z M136,420v-50h15v50H136z M258,455h-46
				v-85h31v57.5c0,4.142,3.358,7.5,7.5,7.5h7.5V455z M319,455h-46v-20h7.5c4.142,0,7.5-3.358,7.5-7.5V370h16v57.5
				c0,4.142,3.358,7.5,7.5,7.5h7.5V455z M258,420v-50h15v50H258z M380,455h-46v-20h7.5c4.142,0,7.5-3.358,7.5-7.5V370h16v57.5
				c0,4.142,3.358,7.5,7.5,7.5h7.5V455z M319,420v-50h15v50H319z M455,455h-60v-20h7.5c4.142,0,7.5-3.358,7.5-7.5V370h22.5
				c4.142,0,7.5-3.358,7.5-7.5c0-4.142-3.358-7.5-7.5-7.5h-395c-4.142,0-7.5,3.358-7.5,7.5c0,4.142,3.358,7.5,7.5,7.5H60v57.5
				c0,4.142,3.358,7.5,7.5,7.5H75v20H15V340h440V455z M380,420v-50h15v50H380z M128.5,305h7.5v20H90v-20h7.5
				c4.142,0,7.5-3.358,7.5-7.5V240h16v57.5C121,301.642,124.358,305,128.5,305z M90,290H75v-50h15V290z M151,290h-15v-50h15V290z
				 M158.5,305c4.142,0,7.5-3.358,7.5-7.5V240h31v85h-46v-20H158.5z M250.5,305h7.5v20h-46v-85h31v57.5
				C243,301.642,246.358,305,250.5,305z M311.5,305h7.5v20h-46v-20h7.5c4.142,0,7.5-3.358,7.5-7.5V240h16v57.5
				C304,301.642,307.358,305,311.5,305z M273,290h-15v-50h15V290z M372.5,305h7.5v20h-46v-20h7.5c4.142,0,7.5-3.358,7.5-7.5V240h16
				v57.5C365,301.642,368.358,305,372.5,305z M334,290h-15v-50h15V290z M455,325h-60v-20h7.5c4.142,0,7.5-3.358,7.5-7.5V240h22.5
				c4.142,0,7.5-3.358,7.5-7.5c0-4.142-3.358-7.5-7.5-7.5h-395c-4.142,0-7.5,3.358-7.5,7.5c0,4.142,3.358,7.5,7.5,7.5H60v57.5
				c0,4.142,3.358,7.5,7.5,7.5H75v20H15V210h440V325z M380,290v-50h15v50H380z"/>
			<path d="M37.155,178.939C38.339,179.646,39.67,180,41,180s2.661-0.354,3.845-1.061C46.362,178.034,82,156.368,82,122.5V7.5
				C82,3.358,78.642,0,74.5,0h-67C3.358,0,0,3.358,0,7.5v115C0,156.368,35.638,178.034,37.155,178.939z M15,15h52v107.5
				c0,19.707-17.928,35.034-26,40.936c-8.072-5.901-26-21.229-26-40.936V15z"/>
			<path d="M37.5,130h7c4.142,0,7.5-3.358,7.5-7.5c0-4.142-3.358-7.5-7.5-7.5h-7c-4.142,0-7.5,3.358-7.5,7.5
				C30,126.642,33.358,130,37.5,130z"/>
			<path d="M135.905,178.939c1.184,0.707,2.515,1.061,3.845,1.061s2.661-0.354,3.845-1.061c1.517-0.906,37.155-22.571,37.155-56.439
				V7.5c0-4.142-3.358-7.5-7.5-7.5h-67c-4.142,0-7.5,3.358-7.5,7.5v115C98.75,156.368,134.388,178.034,135.905,178.939z M113.75,15
				h52v107.5c0,19.707-17.928,35.034-26,40.936c-8.072-5.901-26-21.229-26-40.936V15z"/>
			<path d="M136.25,130h7c4.142,0,7.5-3.358,7.5-7.5c0-4.142-3.358-7.5-7.5-7.5h-7c-4.142,0-7.5,3.358-7.5,7.5
				C128.75,126.642,132.108,130,136.25,130z"/>
			<path d="M234.655,178.939c1.184,0.707,2.515,1.061,3.845,1.061s2.661-0.354,3.845-1.061c1.517-0.906,37.155-22.571,37.155-56.439
				V7.5c0-4.142-3.358-7.5-7.5-7.5h-67c-4.142,0-7.5,3.358-7.5,7.5v115C197.5,156.368,233.138,178.034,234.655,178.939z M212.5,15
				h52v107.5c0,19.707-17.928,35.034-26,40.936c-8.072-5.901-26-21.229-26-40.936V15z"/>
			<path d="M235,130h7c4.142,0,7.5-3.358,7.5-7.5c0-4.142-3.358-7.5-7.5-7.5h-7c-4.142,0-7.5,3.358-7.5,7.5
				C227.5,126.642,230.858,130,235,130z"/>
			<path d="M333.405,178.939c1.184,0.707,2.515,1.061,3.845,1.061c1.33,0,2.661-0.354,3.845-1.061
				c1.517-0.906,37.155-22.571,37.155-56.439V7.5c0-4.142-3.358-7.5-7.5-7.5h-67c-4.142,0-7.5,3.358-7.5,7.5v115
				C296.25,156.368,331.888,178.034,333.405,178.939z M311.25,15h52v107.5c0,19.707-17.928,35.034-26,40.936
				c-8.072-5.901-26-21.229-26-40.936V15z"/>
			<path d="M333.75,130h7c4.142,0,7.5-3.358,7.5-7.5c0-4.142-3.358-7.5-7.5-7.5h-7c-4.142,0-7.5,3.358-7.5,7.5
				C326.25,126.642,329.608,130,333.75,130z"/>
			<path d="M462.5,0h-60c-4.142,0-7.5,3.358-7.5,7.5v115c0,33.627,31.979,55.333,33.34,56.24c1.26,0.84,2.71,1.26,4.16,1.26
				s2.9-0.42,4.16-1.26c1.361-0.907,33.34-22.613,33.34-56.24V7.5C470,3.358,466.642,0,462.5,0z M455,122.5
				c0,19.248-15.015,34.252-22.515,40.546C424.982,156.784,410,141.854,410,122.5V15h45V122.5z"/>
			<path d="M430,130h5c4.142,0,7.5-3.358,7.5-7.5c0-4.142-3.358-7.5-7.5-7.5h-5c-4.142,0-7.5,3.358-7.5,7.5
				C422.5,126.642,425.858,130,430,130z"/>
		</g>
	</g>
</g>
<g>
</g>
<g>
</g>
<g>
</g>
<g>
</g>
<g>
</g>
<g>
</g>
<g>
</g>
<g>
</g>
<g>
</g>
<g>
</g>
<g>
</g>
<g>
</g>
<g>
</g>
<g>
</g>
<g>
</g>
</svg>
