<?xml version="1.0" encoding="iso-8859-1"?>
<!-- Generator: Adobe Illustrator 18.0.0, SVG Export Plug-In . SVG Version: 6.00 Build 0)  -->
<!DOCTYPE svg PUBLIC "-//W3C//DTD SVG 1.1//EN" "http://www.w3.org/Graphics/SVG/1.1/DTD/svg11.dtd">
<svg version="1.1" id="Capa_1" xmlns="http://www.w3.org/2000/svg" xmlns:xlink="http://www.w3.org/1999/xlink" x="0px" y="0px"
	 viewBox="0 0 489.113 489.113" style="enable-background:new 0 0 489.113 489.113;" xml:space="preserve">
<g>
	<path d="M352.264,312.548c-1.527-2.709-4.567-4.193-7.644-3.735c-4.436,0.663-8.324-0.514-11.901-3.596
		c-8.693-7.49-14.311-25.034-14.311-44.695c0-14.986,6.346-18.285,11.118-19.463c2.356-0.581,4.286-2.267,5.179-4.523
		c4.485-11.344,6.76-23.313,6.76-35.573c0-24.2-8.904-45.021-25.75-60.214c-14.596-13.162-34.173-21.328-56.847-23.764l-0.813-48.06
		h1.449c0.008,0,0.016,0,0.02,0c4.143,0,7.5-3.357,7.5-7.5c0-0.313-0.019-0.62-0.056-0.922l-0.44-9.003h11.088
		c4.143,0,7.5-3.358,7.5-7.5c0-4.143-3.357-7.5-7.5-7.5h-11.822l-0.199-4.075h12.022c4.143,0,7.5-3.358,7.5-7.5
		c0-4.142-3.357-7.5-7.5-7.5H264.86l-0.504-10.292C264.161,3.139,260.865,0,256.865,0h-24.617c-4,0-7.296,3.139-7.491,7.133
		l-0.504,10.292h-12.755c-4.143,0-7.5,3.358-7.5,7.5c0,4.142,3.357,7.5,7.5,7.5h12.021L223.32,36.5h-11.822
		c-4.143,0-7.5,3.357-7.5,7.5c0,4.142,3.357,7.5,7.5,7.5h11.088l-0.468,9.558c-0.101,2.051,0.645,4.053,2.06,5.539
		c1.416,1.486,3.379,2.328,5.432,2.328h1.451l-0.813,48.069c-22.518,2.418-41.99,10.479-56.569,23.504
		c-17.028,15.214-26.029,36.122-26.029,60.464c0,12.261,2.274,24.23,6.76,35.572c0.893,2.258,2.822,3.943,5.179,4.524
		c4.773,1.177,11.12,4.476,11.12,19.463c0,19.66-5.618,37.203-14.313,44.694c-3.578,3.083-7.472,4.26-11.902,3.597
		c-3.079-0.463-6.117,1.025-7.644,3.735c-10.365,18.397-15.845,39.341-15.845,60.57c0,31.213,11.596,57.991,33.535,77.439
		c18.993,16.838,44.343,27.108,73.625,29.925v1.131c0,4.143,3.357,7.5,7.5,7.5h17.781c4.143,0,7.5-3.357,7.5-7.5v-1.124
		c29.374-2.826,54.786-13.157,73.789-30.075c21.833-19.436,33.373-46.165,33.373-77.296
		C368.108,351.885,362.629,330.94,352.264,312.548z M239.39,15h10.334l1.904,38.925h-14.143L239.39,15z M324.762,439.21
		c-16.046,14.284-38.507,23.443-63.815,26.179v-18.877c0-4.061,3.032-7.571,7.054-8.165c3.679-0.544,6.403-3.701,6.403-7.42v-17.543
		c0-4.142-3.357-7.5-7.5-7.5H222.21c-4.143,0-7.5,3.358-7.5,7.5v17.543c0,3.719,2.725,6.876,6.403,7.42
		c4.02,0.594,7.052,4.105,7.052,8.165v18.874c-25.237-2.729-47.638-11.835-63.675-26.053c-18.636-16.52-28.485-39.417-28.485-66.215
		c0-17.107,4.046-33.998,11.736-49.141c6.716-0.207,13.012-2.716,18.445-7.398c12.041-10.375,19.521-31.855,19.521-56.059
		c0-21.171-10.31-29.493-18.559-32.76c-2.987-8.604-4.5-17.603-4.5-26.8c0-19.95,7.27-36.99,21.023-49.277
		c11.824-10.565,27.74-17.256,46.319-19.561l-2.539,150.12c-0.034,2.011,0.741,3.951,2.151,5.386
		c1.41,1.434,3.337,2.241,5.348,2.241h19.21c2.011,0,3.938-0.808,5.348-2.241c1.41-1.435,2.186-3.375,2.151-5.386l-2.538-150.115
		c18.706,2.324,34.711,9.087,46.545,19.76c13.604,12.27,20.796,29.238,20.796,49.074c0,9.197-1.513,18.196-4.5,26.801
		c-8.248,3.268-18.557,11.59-18.557,32.759c0,24.204,7.479,45.686,19.521,56.06c5.435,4.682,11.728,7.19,18.444,7.397
		c7.691,15.14,11.736,32.03,11.736,49.141C353.108,399.847,343.307,422.701,324.762,439.21z"/>
	<g>
		<path d="M299.527,366.107c0,0.001-0.002,0.001-0.002,0.001c-0.037,0-0.025-0.072,0.014-0.034c-0.006-0.006-0.535-0.7-0.535-3.061
			v-40.212c0-7.751-3.055-12.06-5.615-14.31c-4.908-4.311-10.729-3.803-11.846-3.658c-4.107,0.534-7.004,4.297-6.469,8.405
			c0.535,4.108,4.297,7.005,8.404,6.47c0.002-0.001,0.002-0.001,0.004-0.001c0.035,0,0.023,0.072-0.014,0.034
			c0.006,0.006,0.535,0.7,0.535,3.06v40.212c0,7.751,3.053,12.061,5.615,14.311c3.674,3.228,7.861,3.754,10.201,3.754
			c0.785,0,1.363-0.06,1.643-0.096c4.107-0.534,7.004-4.297,6.471-8.405C307.398,368.47,303.639,365.575,299.527,366.107z"/>
		<path d="M207.57,304.833c-1.117-0.145-6.938-0.652-11.846,3.658c-2.561,2.25-5.615,6.559-5.615,14.31v40.212
			c0,2.36-0.529,3.055-0.535,3.061c0.039-0.038,0.051,0.034,0.014,0.034c0,0-0.002,0-0.002-0.001
			c-4.111-0.532-7.871,2.362-8.406,6.47c-0.533,4.108,2.363,7.871,6.471,8.405c0.279,0.036,0.857,0.096,1.642,0.096
			c2.34,0,6.527-0.526,10.201-3.754c2.563-2.25,5.615-6.56,5.615-14.311v-40.212c0-2.36,0.529-3.055,0.535-3.06
			c-0.037,0.038-0.049-0.034-0.014-0.034c0.002,0,0.002,0,0.004,0.001c4.107,0.535,7.869-2.362,8.404-6.47
			C214.574,309.13,211.678,305.367,207.57,304.833z"/>
	</g>
</g>
<g>
</g>
<g>
</g>
<g>
</g>
<g>
</g>
<g>
</g>
<g>
</g>
<g>
</g>
<g>
</g>
<g>
</g>
<g>
</g>
<g>
</g>
<g>
</g>
<g>
</g>
<g>
</g>
<g>
</g>
</svg>
