<?xml version="1.0" encoding="iso-8859-1"?>
<!-- Generator: Adobe Illustrator 19.0.0, SVG Export Plug-In . SVG Version: 6.00 Build 0)  -->
<svg version="1.1" id="Layer_1" xmlns="http://www.w3.org/2000/svg" xmlns:xlink="http://www.w3.org/1999/xlink" x="0px" y="0px"
	 viewBox="0 0 512 512" style="enable-background:new 0 0 512 512;" xml:space="preserve">
<g>
	<g>
		<path d="M440.558,23.814c-46.903,0-71.442,38.2-71.442,75.933c0,2.445,0.1,4.919,0.264,7.416H142.618
			c0.165-2.497,0.266-4.971,0.266-7.416c0-37.733-24.539-75.933-71.442-75.933S0,56.889,0,89.562
			c0,27.821,22.634,50.455,50.455,50.455c24.226,0,43.936-19.71,43.936-43.936H58.669c0,4.531-3.685,8.215-8.215,8.215
			c-8.124,0-14.734-6.61-14.734-14.734c0-23.702,22.453-30.027,35.721-30.027c26.366,0,35.721,21.662,35.721,40.212
			c0,16.919-6.068,37.668-13.75,63.937c-7.444,25.455-15.882,54.307-21.728,89.379c-2.658,15.946-6.243,48.204-0.394,85.098
			c5.82,36.719,19.193,67.638,39.745,91.899c32.673,38.57,81.446,58.126,144.964,58.126s112.291-19.556,144.964-58.125
			c20.553-24.262,33.925-55.18,39.745-91.899c5.849-36.893,2.264-69.152-0.394-85.098c-5.845-35.072-14.284-63.924-21.728-89.379
			c-7.682-26.27-13.75-47.019-13.75-63.938c0-18.55,9.355-40.212,35.721-40.212c13.268,0,35.721,6.325,35.721,30.027
			c0,8.124-6.61,14.734-14.734,14.734c-4.529,0-8.215-3.685-8.215-8.215H417.61c0,24.227,19.71,43.936,43.936,43.936
			c27.821,0,50.455-22.634,50.455-50.455C512,56.889,487.461,23.814,440.558,23.814z M178.605,437.439
			c-15.932-7.428-29.403-17.588-40.312-30.466c-34.529-40.76-38.845-103.195-31.372-148.036
			c5.495-32.967,13.614-60.73,20.778-85.224c3.164-10.816,6.152-21.054,8.634-30.828h42.273V437.439z M238.14,451.832
			c-8.306-0.599-16.248-1.623-23.814-3.079V142.884h23.814V451.832z M297.674,448.753c-7.566,1.456-15.508,2.48-23.814,3.079
			V142.884h23.814V448.753z M405.08,258.936c7.473,44.84,3.156,107.277-31.372,148.036c-10.909,12.879-24.382,23.039-40.312,30.466
			V142.884h42.273c2.481,9.774,5.47,20.012,8.634,30.828C391.466,198.206,399.585,225.969,405.08,258.936z"/>
	</g>
</g>
<g>
</g>
<g>
</g>
<g>
</g>
<g>
</g>
<g>
</g>
<g>
</g>
<g>
</g>
<g>
</g>
<g>
</g>
<g>
</g>
<g>
</g>
<g>
</g>
<g>
</g>
<g>
</g>
<g>
</g>
</svg>
