<?xml version="1.0" encoding="iso-8859-1"?>
<!-- Generator: Adobe Illustrator 17.1.0, SVG Export Plug-In . SVG Version: 6.00 Build 0)  -->
<!DOCTYPE svg PUBLIC "-//W3C//DTD SVG 1.1//EN" "http://www.w3.org/Graphics/SVG/1.1/DTD/svg11.dtd">
<svg version="1.1" id="Capa_1" xmlns="http://www.w3.org/2000/svg" xmlns:xlink="http://www.w3.org/1999/xlink" x="0px" y="0px"
	 viewBox="0 0 561.827 561.827" style="enable-background:new 0 0 561.827 561.827;" xml:space="preserve">
<path d="M376.166,451.985c-0.21-11.634-4.486-22.26-8.622-32.536c-5.672-14.093-10.571-26.265-4.771-38.837l0.095-0.204
	c1.104-2.323,0.939-5.051-0.435-7.225c-1.375-2.175-3.768-3.493-6.34-3.493c-3.123,0-12.627,0-14.503-17.672l-0.526-4.963
	c-0.543-5.116,0.425-8.23,1.512-9.438c0.261-0.291,0.955-1.063,3.262-1.063h3.372c2.564,0,4.951-1.311,6.328-3.474
	c1.376-2.164,1.552-4.881,0.466-7.204c-2.766-5.913-3.948-12.473-3.422-18.979l4.066-31.543c0.041-0.318,0.062-0.639,0.062-0.959
	c0-31.553-22.286-57.667-54.921-65.349l-2.446-93.006c0-0.011-0.002-0.023-0.002-0.034c0-0.015,0.001-0.031,0-0.046l-0.249-6.735
	h6.222c4.143,0,7.5-3.357,7.5-7.5s-3.357-7.5-7.5-7.5h-6.776l-0.278-7.519h6.185c4.143,0,7.5-3.357,7.5-7.5s-3.357-7.5-7.5-7.5
	h-5.099c7.241-5.552,11.922-14.284,11.922-24.093V30.352C311.266,13.615,297.65,0,280.914,0s-30.352,13.615-30.352,30.352v17.263
	c0,10.513,5.375,19.793,13.519,25.241l-0.296,8.012h-6.751c-4.143,0-7.5,3.357-7.5,7.5s3.357,7.5,7.5,7.5h6.196l-0.278,7.519h-6.754
	c-4.143,0-7.5,3.357-7.5,7.5s3.357,7.5,7.5,7.5h6.224l-2.384,90.66c-32.635,7.682-54.919,33.794-54.919,65.348
	c0,0.32,0.021,0.641,0.062,0.959l4.066,31.543c0.526,6.507-0.656,13.066-3.422,18.979c-1.086,2.323-0.91,5.04,0.466,7.204
	c1.377,2.163,3.764,3.474,6.328,3.474h3.371c2.307,0,3.001,0.772,3.263,1.063c1.087,1.209,2.055,4.323,1.512,9.438l-0.527,4.963
	c-1.876,17.673-11.379,17.673-14.502,17.673c-2.572,0-4.965,1.318-6.34,3.493c-1.374,2.174-1.538,4.901-0.435,7.225l0.073,0.16
	c5.82,12.617,0.921,24.788-4.751,38.882c-4.136,10.276-8.412,20.901-8.622,32.535c-0.26,14.441,4.754,27.003,14.901,37.335
	c17.795,18.118,48.009,25.665,72.851,26.918v38.088c0,4.143,3.357,7.5,7.5,7.5s7.5-3.357,7.5-7.5v-38.088
	c24.841-1.253,55.056-8.8,72.851-26.918C371.412,478.988,376.426,466.427,376.166,451.985z M277.287,123.738h7.252l5.202,197.816
	h-17.656L277.287,123.738z M265.563,30.352c0-8.465,6.887-15.352,15.352-15.352s15.352,6.887,15.352,15.352v17.263
	c0,8.465-6.887,15.352-15.352,15.352s-15.352-6.887-15.352-15.352V30.352z M280.914,77.966c0.675,0,1.343-0.03,2.007-0.074
	l0.041,1.098c-0.002,0.073-0.011,0.144-0.011,0.217c0,0.285,0.019,0.565,0.05,0.842l1.061,28.69h-6.298l0.734-19.832
	c0.013-0.178,0.027-0.357,0.027-0.539c0-0.028-0.004-0.055-0.004-0.083l0.385-10.393C279.57,77.936,280.239,77.966,280.914,77.966z
	 M350.563,478.81c-12.742,12.974-34.521,19.441-53.866,21.681l1.024-21.91c0.193-4.138-3.005-7.649-7.142-7.843
	c-4.172-0.187-7.649,3.005-7.843,7.142l-1.1,23.545c-0.24,0.001-0.485,0.006-0.723,0.006c-0.197,0-0.399-0.004-0.598-0.005
	c-0.52-17.37-1.665-50.37-3.002-56.011c-2.359-9.967-6.68-31.166-9.115-43.268h25.431c-2.435,12.101-6.755,33.295-9.114,43.259
	c-0.328,1.386-0.652,3.727-0.795,11.399c-0.076,4.142,3.219,7.562,7.359,7.639c4.141,0.03,7.561-3.218,7.639-7.359
	c0.12-6.464,0.362-8.043,0.393-8.219c3.455-14.592,10.717-51.21,11.024-52.761c0.436-2.202-0.137-4.483-1.562-6.218
	c-1.425-1.735-3.552-2.74-5.796-2.74H259.05c-2.244,0-4.371,1.005-5.796,2.74c-1.425,1.734-1.997,4.016-1.562,6.218
	c0.308,1.552,7.57,38.172,11.021,52.745c0.75,3.492,1.83,27.671,2.567,51.659c-19.382-2.224-41.241-8.692-54.015-21.699
	c-7.324-7.457-10.793-16.143-10.605-26.555c0.159-8.868,3.744-17.774,7.539-27.204c5.114-12.706,10.802-26.837,7.439-41.981
	c10.825-3.824,17.9-14.249,19.516-29.467l0.527-4.963c0.943-8.888-0.881-16.167-5.275-21.054c-1.6-1.778-4.05-3.777-7.589-4.969
	c1.385-5.583,1.854-11.381,1.363-17.146c-0.009-0.107-0.021-0.216-0.034-0.323l-4.024-31.218
	c0.204-23.347,15.699-42.246,39.507-49.271l-2.74,104.199c-0.054,2.022,0.713,3.981,2.125,5.431
	c1.411,1.449,3.349,2.267,5.372,2.267h33.057c2.023,0,3.961-0.817,5.372-2.267c1.412-1.449,2.179-3.408,2.125-5.431l-2.74-104.199
	c23.808,7.025,39.305,25.924,39.509,49.271l-4.024,31.218c-0.014,0.107-0.025,0.216-0.034,0.323
	c-0.491,5.766-0.021,11.564,1.363,17.146c-3.539,1.191-5.989,3.191-7.589,4.97c-4.395,4.886-6.219,12.166-5.275,21.053l0.526,4.963
	c1.615,15.22,8.691,25.646,19.519,29.469c-3.36,15.153,2.324,29.278,7.437,41.979c3.795,9.43,7.38,18.337,7.539,27.205
	C361.355,462.667,357.887,471.353,350.563,478.81z M255.336,358.167c-0.593-0.247-1.137-0.562-1.628-0.93l-5.54,33.026
	c-0.663,3.95-3.054,7.326-6.559,9.264c-1.967,1.087-4.131,1.635-6.304,1.636c-1.699,0-3.404-0.336-5.026-1.011
	c-3.218-1.341-5.722-3.854-7.049-7.076c-1.328-3.224-1.321-6.771,0.019-9.989c1.593-3.823,5.984-5.634,9.808-4.04
	c0.593,0.247,1.137,0.562,1.628,0.93l5.54-33.027c0.662-3.947,3.051-7.323,6.556-9.261c3.504-1.94,7.633-2.168,11.331-0.628
	c3.22,1.341,5.724,3.854,7.051,7.077c1.328,3.224,1.321,6.771-0.019,9.989C263.551,357.95,259.159,359.76,255.336,358.167z
	 M338.176,383.087c1.34,3.219,1.347,6.766,0.02,9.988c-1.328,3.224-3.832,5.737-7.051,7.077c-1.621,0.675-3.326,1.011-5.024,1.011
	c-2.174,0-4.338-0.549-6.305-1.636c-3.505-1.938-5.896-5.313-6.559-9.263l-5.54-33.027c-0.491,0.368-1.035,0.683-1.628,0.93
	c-3.824,1.593-8.215-0.217-9.808-4.04c-1.34-3.219-1.347-6.766-0.019-9.989c1.327-3.224,3.831-5.736,7.049-7.077
	c3.7-1.539,7.829-1.311,11.333,0.628c3.505,1.938,5.894,5.313,6.556,9.262l5.54,33.026c0.491-0.368,1.035-0.683,1.628-0.93
	C332.19,377.453,336.583,379.264,338.176,383.087z M299.345,361.851c0,4.143-3.357,7.5-7.5,7.5h-21.863c-4.143,0-7.5-3.357-7.5-7.5
	s3.357-7.5,7.5-7.5h21.863C295.987,354.351,299.345,357.708,299.345,361.851z"/>
<g>
</g>
<g>
</g>
<g>
</g>
<g>
</g>
<g>
</g>
<g>
</g>
<g>
</g>
<g>
</g>
<g>
</g>
<g>
</g>
<g>
</g>
<g>
</g>
<g>
</g>
<g>
</g>
<g>
</g>
</svg>
