<?xml version="1.0" encoding="iso-8859-1"?>
<!-- Generator: Adobe Illustrator 17.1.0, SVG Export Plug-In . SVG Version: 6.00 Build 0)  -->
<!DOCTYPE svg PUBLIC "-//W3C//DTD SVG 1.1//EN" "http://www.w3.org/Graphics/SVG/1.1/DTD/svg11.dtd">
<svg version="1.1" id="Capa_1" xmlns="http://www.w3.org/2000/svg" xmlns:xlink="http://www.w3.org/1999/xlink" x="0px" y="0px"
	 viewBox="0 0 409.883 409.883" style="enable-background:new 0 0 409.883 409.883;" xml:space="preserve">
<g>
	<path d="M401.39,276.24c-1.608-3.206-11.438-21.172-35.486-33.719c-15.948-8.321-25.097-22.695-26.269-24.615
		c-0.854-1.644-2.304-2.98-4.186-3.627c-3.816-1.314-7.942,0.597-9.399,4.318c-0.029,0.075-0.061,0.149-0.09,0.225
		c-0.008,0.023-0.02,0.045-0.027,0.069c-0.095,0.254-2.384,6.239-8.326,7.534c-4.93,1.076-16.35-0.252-37.347-21.249
		c-7.409-7.409-9.424-12.499-8.897-14.606c0.396-1.58,2.906-2.836,3.99-3.166l-0.091,0.026l-0.002-0.007
		c3.249-0.891,5.602-3.898,5.511-7.417c-0.107-4.141-3.554-7.401-7.69-7.305c-0.056,0.001-5.771,0.078-7.998-5.414
		c-4.11-10.138-12.025-20.666-17.408-26.558c-0.197-0.256-0.406-0.506-0.641-0.741c-0.152-0.152-0.312-0.292-0.465-0.442
		c-0.272-0.284-0.543-0.566-0.797-0.82c-0.232-0.233-0.48-0.44-0.734-0.636c-27.477-25.541-69.642-26.546-98.263-2.991
		L73.854,62.175l13.202-13.202c2.929-2.929,2.929-7.678,0-10.607c-2.929-2.929-7.678-2.929-10.606,0L63.247,51.568L25.895,14.216
		c2.675-2.944,2.6-7.495-0.243-10.337c-2.842-2.843-7.394-2.918-10.337-0.243l-1.439-1.439c-2.929-2.929-7.678-2.929-10.606,0
		c-2.929,2.929-2.929,7.678,0,10.606l1.426,1.426l-0.585,0.585c-2.929,2.929-2.929,7.677,0,10.606
		c1.464,1.465,3.384,2.197,5.303,2.197c1.92,0,3.839-0.732,5.303-2.197l0.585-0.585l23.88,23.881l-12.36,12.36
		c-2.929,2.929-2.929,7.678,0,10.607c1.464,1.465,3.384,2.197,5.303,2.197c1.919,0,3.839-0.732,5.303-2.197l12.361-12.361
		l86.185,86.186c-26.18,28.602-26.042,72.793,0.401,101.239c0.196,0.254,0.403,0.502,0.636,0.735
		c0.253,0.254,0.536,0.525,0.821,0.798c0.15,0.153,0.29,0.313,0.441,0.465c0.235,0.235,0.485,0.444,0.741,0.641
		c5.891,5.382,16.418,13.298,26.558,17.409c5.008,2.03,5.392,6.914,5.412,8.044c-0.196,3.848,2.525,7.246,6.34,7.821
		c3.827,0.576,7.437-1.835,8.365-5.596c0.331-1.085,1.586-3.595,3.167-3.99c2.106-0.523,7.197,1.488,14.605,8.897
		c20.996,20.996,22.326,32.412,21.25,37.348c-1.279,5.869-7.135,8.174-7.521,8.32c-0.024,0.009-0.047,0.021-0.07,0.029
		c-0.132,0.048-0.26,0.104-0.388,0.16c-0.1,0.043-0.202,0.083-0.299,0.13c-0.115,0.056-0.226,0.12-0.339,0.181
		c-0.104,0.057-0.209,0.111-0.31,0.172c-0.1,0.061-0.194,0.13-0.291,0.196c-0.105,0.071-0.212,0.139-0.314,0.216
		c-0.088,0.067-0.172,0.142-0.258,0.213c-0.102,0.084-0.205,0.166-0.302,0.255c-0.078,0.072-0.151,0.151-0.227,0.227
		c-0.097,0.097-0.196,0.193-0.287,0.296c-0.067,0.075-0.129,0.157-0.194,0.236c-0.092,0.112-0.184,0.223-0.27,0.34
		c-0.057,0.078-0.108,0.162-0.163,0.243c-0.085,0.126-0.168,0.252-0.245,0.382c-0.015,0.025-0.031,0.047-0.046,0.072
		c-0.037,0.065-0.065,0.133-0.101,0.198c-0.066,0.126-0.133,0.251-0.192,0.38c-0.05,0.107-0.094,0.215-0.138,0.324
		c-0.047,0.115-0.092,0.229-0.133,0.345c-0.043,0.121-0.08,0.242-0.115,0.363c-0.033,0.11-0.064,0.22-0.092,0.332
		c-0.03,0.124-0.056,0.249-0.08,0.375c-0.021,0.114-0.042,0.228-0.059,0.344c-0.018,0.122-0.03,0.244-0.042,0.366
		c-0.011,0.122-0.021,0.244-0.025,0.367c-0.005,0.116-0.007,0.233-0.007,0.349c0.001,0.127,0.004,0.255,0.011,0.383
		c0.007,0.115,0.017,0.229,0.028,0.344c0.013,0.126,0.027,0.251,0.047,0.377c0.018,0.122,0.041,0.242,0.065,0.363
		c0.024,0.115,0.048,0.23,0.077,0.345c0.033,0.134,0.074,0.267,0.115,0.399c0.021,0.069,0.036,0.138,0.06,0.207
		c0.008,0.023,0.021,0.043,0.029,0.066c0.117,0.331,0.258,0.654,0.421,0.966c0.032,0.062,0.066,0.121,0.101,0.181
		c0.167,0.301,0.35,0.594,0.559,0.87c0.006,0.007,0.01,0.015,0.016,0.023c0.206,0.271,0.438,0.524,0.684,0.767
		c0.056,0.056,0.111,0.111,0.169,0.164c0.244,0.227,0.501,0.444,0.779,0.641c0.035,0.025,0.073,0.046,0.109,0.07
		c0.164,0.112,0.329,0.223,0.505,0.324c0.157,0.09,15.857,9.201,24.829,26.398c12.778,24.494,31.183,34.239,33.884,35.568
		c7.324,4.486,15.555,6.699,24.431,6.699c21.936,0,47.759-13.428,73.241-38.911C419.365,323.972,410.884,291.575,401.39,276.24z
		 M366.806,355.127l-56.846-56.846c-2.929-2.928-7.677-2.929-10.607,0c-2.929,2.929-2.929,7.678,0,10.607l56.833,56.834
		c-28.4,26.231-56.354,35.62-74.023,24.467c-0.037-0.023-0.075-0.041-0.112-0.064c-0.057-0.034-0.116-0.065-0.174-0.098
		c-0.155-0.089-0.31-0.177-0.47-0.253c-0.021-0.01-0.039-0.022-0.06-0.032c-0.161-0.077-16.198-7.9-27.24-29.064
		c-6.171-11.827-14.839-20.472-21.394-25.859c2.897-3.016,5.425-6.978,6.583-11.993c3.267-14.14-5.222-31.454-25.229-51.462
		c-10.895-10.894-20.404-15.077-29.076-12.784c-1.488,0.393-2.826,0.951-4.028,1.621c-2.251-2.918-5.409-5.545-9.756-7.307
		c-8.311-3.369-17.967-10.659-22.801-15.253c-22.014-22.521-22.624-58.27-1.817-81.517l78.741,78.741
		c1.465,1.465,3.385,2.197,5.304,2.197c1.919,0,3.839-0.732,5.304-2.197c2.929-2.929,2.929-7.678,0-10.606l-78.487-78.487
		c23.236-18.179,56.928-16.731,78.488,4.356c4.594,4.84,11.876,14.488,15.242,22.792c1.766,4.355,4.4,7.513,7.325,9.766
		c-0.672,1.204-1.245,2.528-1.639,4.018c-2.293,8.671,1.889,18.182,12.783,29.077c17.225,17.224,32.45,25.91,45.376,25.91
		c2.089,0,4.119-0.227,6.086-0.681c5.015-1.159,8.978-3.686,11.993-6.583c5.388,6.555,14.031,15.223,25.858,21.393
		c21.04,10.978,28.895,26.892,29.063,27.236c0.009,0.019,0.021,0.035,0.03,0.053c0.124,0.26,0.261,0.517,0.419,0.767
		C400.161,302.387,392.448,327.526,366.806,355.127z"/>
	<path d="M272.841,252.107l-20.503,20.503c-2.929,2.929-2.929,7.677,0,10.606c1.465,1.465,3.385,2.197,5.304,2.197
		c1.919,0,3.839-0.732,5.304-2.197l20.503-20.503c2.929-2.929,2.929-7.678,0-10.607
		C280.519,249.178,275.771,249.178,272.841,252.107z"/>
</g>
<g>
</g>
<g>
</g>
<g>
</g>
<g>
</g>
<g>
</g>
<g>
</g>
<g>
</g>
<g>
</g>
<g>
</g>
<g>
</g>
<g>
</g>
<g>
</g>
<g>
</g>
<g>
</g>
<g>
</g>
</svg>
