<?xml version="1.0" encoding="iso-8859-1"?>
<!-- Generator: Adobe Illustrator 18.1.1, SVG Export Plug-In . SVG Version: 6.00 Build 0)  -->
<svg version="1.1" id="Capa_1" xmlns="http://www.w3.org/2000/svg" xmlns:xlink="http://www.w3.org/1999/xlink" x="0px" y="0px"
	 viewBox="0 0 203.497 203.497" style="enable-background:new 0 0 203.497 203.497;" xml:space="preserve">
<g>
	<g>
		<path style="fill:#010002;" d="M203.497,4.271l-3.618-3.625l-0.551,0.551c-5.912,5.916-10.382,6.596-13.224,6.596
			c-1.829,0-3.543-0.315-5.207-0.616c-1.446-0.265-2.942-0.537-4.427-0.537c-2.484,0-4.42,0.762-6.066,2.412
			c-4.849,4.846-6.403,12.014-4.023,18.402l-5.751,5.272v-0.455h-2.802v-2.806h-7.176v7.172h2.802v2.673l-1.167,1.07h-2.584V37.58
			h-7.165v7.172h2.802v2.004L110.171,79.03l-3.114-3.114c-4.352-4.355-11.034-7.061-17.436-7.061c-5.257,0-9.77,1.736-13.07,5.014
			l-30.499,25.07l10.937,10.937c0.673,0.68,1.056,1.589,1.049,2.559c0,0.973-0.383,1.882-1.063,2.577l-9.581,9.57
			c-1.356,1.367-3.743,1.374-5.118,0l-10.74-10.74l-21.334,21.326c-14.283,14.29-11.871,29.5-3.146,38.226l23.692,23.699
			c3.654,3.661,9.588,5.758,16.248,5.758c8.303,0,16.316-3.25,21.978-8.911l21.326-21.334l-10.733-10.74
			c-0.684-0.684-1.056-1.585-1.063-2.552c0-0.973,0.379-1.893,1.07-2.588l9.57-9.57c1.364-1.364,3.754-1.364,5.118,0l10.976,10.976
			l24.333-31.086c7.838-7.938,7.805-20.815-0.082-28.706l-5.393-5.386l32.9-34.844v1.106h2.802v2.806h7.176v-7.168h-2.802v-2.799
			h-1.446l2.391-2.534v1.589h2.791v2.813h7.176v-7.183h-2.802v-2.802h-1.9l5.955-6.295c2.061,0.82,4.227,1.235,6.442,1.235
			c4.631,0,9.004-1.822,12.308-5.136c3.207-3.203,2.509-7.068,1.882-10.497c-0.945-5.175-1.925-10.522,5.973-18.424L203.497,4.271z
			 M191.927,24.173c0.616,3.371,0.737,4.756-0.458,5.952c-2.337,2.341-5.422,3.625-8.697,3.625c-2.015,0-4.03-0.505-5.834-1.471
			l-1.721-0.92l-84.082,89.031l-8.822-8.833l89.865-82.475l0.437-0.401l-0.877-1.729c-2.405-4.763-1.485-10.5,2.283-14.276
			c1.22-1.217,2.902-1.02,5.962-0.458c1.807,0.329,3.844,0.701,6.138,0.701c2.104,0,4.109-0.326,6.084-0.977
			C190.585,16.801,191.325,20.852,191.927,24.173z M47.388,163.813l-22.74,19.498l-4.527-4.524l20.31-21.928L47.388,163.813z
			 M97.896,143.535c-1.65-1.65-3.844-2.559-6.184-2.559c-2.341,0-4.542,0.909-6.199,2.57l-9.57,9.577
			c-1.657,1.65-2.566,3.851-2.566,6.191c0,2.337,0.909,4.534,2.566,6.184l7.118,7.108L65.35,190.314
			c-4.703,4.71-11.438,7.408-18.485,7.408c-5.232,0-9.788-1.553-12.494-4.255l-6.32-6.331l26.874-23.026l-14.641-14.638
			L16.302,175.38l-5.622-5.615c-6.417-6.417-9.448-18.377,3.142-30.975l17.712-17.701l7.118,7.122
			c1.65,1.65,3.844,2.552,6.184,2.552c2.341,0,4.542-0.909,6.199-2.577l9.57-9.57c1.657-1.65,2.559-3.844,2.559-6.184
			c0-2.341-0.902-4.534-2.559-6.184l-6.932-6.936l26.33-21.663c2.995-3.003,6.907-3.633,9.659-3.633
			c5.093,0,10.364,2.112,13.771,5.511l2.96,2.967l-31.487,28.899l16.337,16.345l29.336-31.057l5.293,5.29
			c2.867,2.867,4.449,6.692,4.449,10.765c0,4.08-1.582,7.895-4.517,10.837l-21.026,26.852L97.896,143.535z"/>
	</g>
</g>
<g>
</g>
<g>
</g>
<g>
</g>
<g>
</g>
<g>
</g>
<g>
</g>
<g>
</g>
<g>
</g>
<g>
</g>
<g>
</g>
<g>
</g>
<g>
</g>
<g>
</g>
<g>
</g>
<g>
</g>
</svg>
