<?xml version="1.0" encoding="iso-8859-1"?>
<!-- Generator: Adobe Illustrator 19.0.0, SVG Export Plug-In . SVG Version: 6.00 Build 0)  -->
<svg version="1.1" id="Layer_1" xmlns="http://www.w3.org/2000/svg" xmlns:xlink="http://www.w3.org/1999/xlink" x="0px" y="0px"
	 viewBox="0 0 469.999 469.999" style="enable-background:new 0 0 469.999 469.999;" xml:space="preserve">
<g>
	<g>
		<path d="M467.802,2.199c-2.93-2.929-7.678-2.93-10.607,0l-44.171,44.17l-5.303-5.303c-2.009-2.009-4.979-2.709-7.676-1.812
			L368.226,49.86c-0.046,0.015-0.09,0.038-0.135,0.054c-0.188,0.066-0.373,0.14-0.556,0.222c-0.073,0.032-0.144,0.065-0.216,0.1
			c-0.18,0.088-0.356,0.184-0.53,0.287c-0.065,0.039-0.131,0.075-0.195,0.115c-0.178,0.113-0.35,0.236-0.521,0.365
			c-0.052,0.039-0.106,0.075-0.157,0.116c-0.215,0.172-0.423,0.354-0.622,0.553l-89.095,89.095l-1.767-1.768
			c-2.929-2.929-7.677-2.929-10.607,0c-2.929,2.929-2.929,7.678,0,10.606l1.768,1.768l-10.607,10.606l-1.768-1.768
			c-2.93-2.929-7.678-2.929-10.607,0s-2.929,7.678,0,10.606l1.768,1.768l-10.606,10.606l-1.768-1.768
			c-2.929-2.929-7.678-2.929-10.606,0c-2.929,2.929-2.929,7.678,0,10.606l1.768,1.768l-10.607,10.607l-1.768-1.768
			c-2.929-2.929-7.678-2.929-10.606,0c-2.929,2.929-2.929,7.678,0,10.606l1.768,1.768l-10.607,10.607l-1.768-1.768
			c-2.929-2.929-7.678-2.929-10.606,0c-2.929,2.929-2.929,7.678,0,10.606l1.768,1.768L87.314,329.65l-72.24,59.105l-2.271-2.271
			c-2.929-2.929-7.678-2.929-10.606,0c-2.929,2.929-2.929,7.678,0,10.606l7.08,7.08c0.011,0.011,63.63,63.63,63.63,63.63
			c1.464,1.464,3.384,2.197,5.303,2.197s3.839-0.732,5.303-2.197c2.929-2.929,2.929-7.678,0-10.606l-2.271-2.271l59.105-72.24
			l29.787-29.787l1.768,1.768c1.464,1.464,3.384,2.197,5.303,2.197c1.919,0,3.839-0.732,5.303-2.197
			c2.929-2.929,2.929-7.678,0-10.606l-1.768-1.768l10.607-10.607l1.768,1.768c1.464,1.465,3.384,2.197,5.303,2.197
			s3.839-0.732,5.303-2.197c2.929-2.929,2.929-7.678,0-10.606l-1.768-1.768l98.995-98.995l1.768,1.768
			c1.465,1.464,3.385,2.197,5.304,2.197c1.919,0,3.839-0.732,5.304-2.197c2.929-2.929,2.929-7.678,0-10.606l-1.768-1.768
			l10.606-10.606l1.767,1.767c1.465,1.464,3.385,2.197,5.304,2.197c1.919,0,3.839-0.732,5.304-2.197
			c2.929-2.929,2.929-7.678,0-10.606l-1.768-1.768l35.355-35.355l1.767,1.767c1.465,1.464,3.385,2.197,5.304,2.197
			c1.919,0,3.839-0.732,5.304-2.197c2.929-2.929,2.929-7.678,0-10.606l-1.768-1.768l13.081-13.081l1.768,1.768
			c1.465,1.464,3.385,2.197,5.304,2.197c1.919,0,3.839-0.732,5.304-2.197c2.929-2.929,2.929-7.678,0-10.606l-1.768-1.768
			l15.91-15.91c0.198-0.198,0.381-0.406,0.552-0.62c0.042-0.053,0.08-0.11,0.121-0.164c0.127-0.168,0.249-0.338,0.36-0.514
			c0.041-0.065,0.077-0.131,0.116-0.197c0.103-0.174,0.199-0.35,0.287-0.53c0.034-0.071,0.067-0.141,0.099-0.213
			c0.083-0.185,0.157-0.372,0.224-0.561c0.016-0.045,0.037-0.087,0.052-0.132l10.606-31.82c0.898-2.695,0.197-5.666-1.812-7.675
			l-5.303-5.303l44.172-44.171C470.731,9.877,470.731,5.128,467.802,2.199z M233.772,204.408l10.607,10.606l-10.606,10.606
			l-10.607-10.606L233.772,204.408z M212.559,225.621l10.607,10.606l-10.607,10.607l-10.607-10.606L212.559,225.621z M70.58,444.268
			L25.732,399.42l66.115-54.094l32.827,32.827L70.58,444.268z M134.777,367.043l-31.82-31.82l88.388-88.388l10.607,10.607
			l-72.479,72.479c-2.929,2.929-2.929,7.678,0,10.606c1.464,1.464,3.384,2.197,5.303,2.197s3.839-0.732,5.303-2.197l8.839-8.839
			l10.607,10.607L134.777,367.043z M170.133,331.688l-10.607-10.607l10.607-10.607l10.606,10.607L170.133,331.688z M316.863,184.957
			c-0.013,0.013-21.218,21.218-21.218,21.218c-0.004,0.004-104.3,104.3-104.3,104.3l-10.606-10.607l58.336-58.336
			c0.002-0.002,21.214-21.214,21.214-21.214c2.929-2.929,2.929-7.678,0-10.606l-15.91-15.91l10.606-10.606l15.909,15.909
			c1.465,1.464,3.385,2.197,5.304,2.197c1.919,0,3.839-0.732,5.304-2.197c2.929-2.929,2.929-7.678,0-10.606l-15.91-15.91
			l10.607-10.607l15.91,15.91c1.465,1.465,3.384,2.197,5.304,2.197c1.919,0,3.839-0.732,5.304-2.197
			c2.929-2.929,2.929-7.678,0-10.606l-15.91-15.91l83.791-83.793l10.606,10.606L320.393,139c-2.929,2.929-2.929,7.678,0,10.606
			c1.465,1.464,3.385,2.197,5.304,2.197c1.919,0,3.839-0.732,5.304-2.197l15.909-15.909l10.606,10.606L316.863,184.957z
			 M368.122,133.697l-10.606-10.606l13.081-13.081l10.606,10.606L368.122,133.697z M391.81,110.009l-10.606-10.606l10.606-10.606
			l10.606,10.606L391.81,110.009z M409.746,85.519l-25.264-25.264l15.91-5.304l7.328,7.329l7.329,7.33L409.746,85.519z"/>
	</g>
</g>
<g>
</g>
<g>
</g>
<g>
</g>
<g>
</g>
<g>
</g>
<g>
</g>
<g>
</g>
<g>
</g>
<g>
</g>
<g>
</g>
<g>
</g>
<g>
</g>
<g>
</g>
<g>
</g>
<g>
</g>
</svg>
