<?xml version="1.0" encoding="iso-8859-1"?>
<!-- Generator: Adobe Illustrator 19.0.0, SVG Export Plug-In . SVG Version: 6.00 Build 0)  -->
<svg version="1.1" id="Layer_1" xmlns="http://www.w3.org/2000/svg" xmlns:xlink="http://www.w3.org/1999/xlink" x="0px" y="0px"
	 viewBox="0 0 470.004 470.004" style="enable-background:new 0 0 470.004 470.004;" xml:space="preserve">
<g>
	<g>
		<g>
			<path d="M467.807,44.623L425.38,2.196C423.974,0.79,422.066,0,420.077,0s-3.897,0.79-5.303,2.196l-38.736,38.736
				c-10.65,2.46-20.885,8.158-29.195,16.467c-21.277,21.278-23.837,53.337-5.706,71.468c5.604,5.604,12.757,9.393,20.719,11.1
				l-29.634,29.634l-31.82-31.82l14.314-14.314c2.929-2.93,2.929-7.678,0-10.608c-2.929-2.928-7.678-2.928-10.607,0L215.55,201.42
				l-1.768-1.768c-2.929-2.928-7.677-2.928-10.607,0c-2.929,2.929-2.929,7.678,0,10.607l1.767,1.767l-31.82,31.82l-1.768-1.768
				c-2.929-2.928-7.677-2.928-10.607,0c-2.929,2.93-2.929,7.678,0,10.608l1.767,1.767l-31.819,31.819l-1.767-1.767
				c-2.929-2.928-7.678-2.927-10.607,0c-2.929,2.93-2.929,7.678,0,10.608l1.767,1.767l-16.262,16.262
				c-2.706-0.875-5.559-1.336-8.486-1.336c-7.346,0-14.251,2.86-19.446,8.054c-5.194,5.194-8.055,12.101-8.055,19.446
				c0.001,2.926,0.461,5.78,1.336,8.486L54.33,362.64c-2.706-0.875-5.56-1.335-8.485-1.336c-7.346,0-14.252,2.861-19.446,8.055
				c-7.54,7.54-9.769,18.403-6.705,27.917L2.197,414.773c-2.929,2.929-2.929,7.678,0,10.608l42.427,42.427
				c1.406,1.406,3.314,2.196,5.303,2.196s3.896-0.79,5.303-2.196L383.408,139.63c10.651-2.46,20.886-8.159,29.196-16.469
				c8.324-8.324,14.027-18.501,16.484-29.212l38.719-38.719C470.736,52.3,470.736,47.552,467.807,44.623z M86.502,330.468
				c2.362-2.36,5.501-3.661,8.84-3.662c3.339,0,6.478,1.3,8.839,3.661c4.874,4.874,4.874,12.804,0,17.679
				c-2.361,2.361-5.5,3.66-8.839,3.66c-3.339,0-6.478-1.299-8.839-3.661C81.629,343.271,81.629,335.342,86.502,330.468z
				 M37.005,379.966c2.361-2.361,5.5-3.662,8.839-3.661c3.339,0,6.478,1.299,8.839,3.661c4.874,4.873,4.874,12.804,0,17.676
				c-2.361,2.361-5.5,3.661-8.839,3.661c-3.339,0.001-6.478-1.299-8.839-3.659C32.132,392.77,32.132,384.839,37.005,379.966z
				 M49.926,451.898l-31.82-31.82l10.142-10.142c4.932,4.12,11.09,6.368,17.596,6.368c7.346,0,14.251-2.86,19.445-8.053
				c5.195-5.195,8.055-12.101,8.055-19.446c0-6.505-2.248-12.664-6.369-17.596l10.77-10.77c4.932,4.121,11.09,6.368,17.595,6.369
				c7.346,0,14.252-2.861,19.446-8.054c5.194-5.194,8.055-12.101,8.055-19.446c0-6.505-2.247-12.663-6.369-17.596l14.224-14.224
				l11.528,11.528c-1.429,2.989-2.208,6.273-2.208,9.685c0,6.01,2.341,11.66,6.591,15.91c1.837,1.837,3.948,3.293,6.224,4.382
				L49.926,451.898z M167.82,334.003c-1.417,1.417-3.3,2.197-5.303,2.197c-2.004,0-3.887-0.78-5.303-2.197
				c-1.416-1.416-2.197-3.3-2.197-5.303c0-2.001,0.779-3.883,2.2-5.306c1.416-1.414,3.298-2.194,5.3-2.194
				c2.003,0,3.886,0.78,5.303,2.197c1.416,1.416,2.197,3.3,2.197,5.303C170.017,330.703,169.237,332.587,167.82,334.003z
				 M182.808,319.016c-1.088-2.277-2.545-4.387-4.382-6.224c-4.25-4.25-9.9-6.591-15.91-6.591c-3.411,0-6.696,0.779-9.685,2.208
				l-11.528-11.528l31.82-31.82l11.519,11.519c-3.983,8.361-2.522,18.69,4.391,25.603c1.838,1.838,3.948,3.294,6.225,4.383
				L182.808,319.016z M210.246,291.577c-1.417,1.416-3.299,2.196-5.303,2.196c-2.003,0-3.887-0.78-5.303-2.197
				c-2.924-2.924-2.924-7.682,0-10.605c1.417-1.417,3.3-2.197,5.304-2.197c2.004,0,3.887,0.779,5.303,2.195
				C213.171,283.894,213.171,288.652,210.246,291.577z M225.245,276.579c-1.072-2.248-2.532-4.357-4.391-6.216
				c-4.25-4.249-9.9-6.589-15.91-6.589c-3.411,0-6.696,0.778-9.685,2.207l-11.528-11.528l31.819-31.819l11.519,11.519
				c-3.983,8.362-2.522,18.691,4.391,25.605c1.837,1.837,3.948,3.293,6.224,4.382L225.245,276.579z M252.673,249.15
				c-1.417,1.417-3.3,2.197-5.303,2.197c-2.004,0-3.887-0.78-5.303-2.196c-2.924-2.925-2.924-7.684,0-10.608
				c1.416-1.416,3.299-2.196,5.303-2.196c2.004,0,3.887,0.779,5.303,2.195C255.597,241.468,255.597,246.227,252.673,249.15z
				 M267.671,234.153c-1.072-2.248-2.532-4.357-4.392-6.216c-4.249-4.249-9.9-6.589-15.91-6.589c-3.411,0-6.696,0.778-9.685,2.207
				l-11.528-11.528l63.64-63.639l31.819,31.82L267.671,234.153z M415.291,85.546c-0.915,9.76-5.636,19.351-13.293,27.008
				c-8.549,8.549-19.604,13.452-30.332,13.451c-7.967,0-14.856-2.678-19.922-7.745c-12.282-12.281-9.722-34.825,5.706-50.253
				c8.548-8.548,19.603-13.45,30.331-13.45c7.967,0,14.855,2.678,19.923,7.745C413.462,68.06,416.157,76.316,415.291,85.546z
				 M429.44,72.384c-1.686-7.924-5.457-15.016-11.13-20.69c-5.604-5.604-12.758-9.393-20.72-11.1l22.487-22.487l31.82,31.82
				L429.44,72.384z"/>
			<circle cx="379.723" cy="90.281" r="10"/>
		</g>
	</g>
</g>
<g>
</g>
<g>
</g>
<g>
</g>
<g>
</g>
<g>
</g>
<g>
</g>
<g>
</g>
<g>
</g>
<g>
</g>
<g>
</g>
<g>
</g>
<g>
</g>
<g>
</g>
<g>
</g>
<g>
</g>
</svg>
