<?xml version="1.0" encoding="iso-8859-1"?>
<!-- Generator: Adobe Illustrator 19.0.0, SVG Export Plug-In . SVG Version: 6.00 Build 0)  -->
<svg version="1.1" id="Layer_1" xmlns="http://www.w3.org/2000/svg" xmlns:xlink="http://www.w3.org/1999/xlink" x="0px" y="0px"
	 viewBox="0 0 470.707 470.707" style="enable-background:new 0 0 470.707 470.707;" xml:space="preserve">
<g>
	<g>
		<g>
			<path d="M468.51,29.699L441.009,2.197C439.603,0.79,437.695,0,435.706,0s-3.897,0.79-5.303,2.196l-32.098,32.099
				c-9.826,1.184-19.474,5.963-27.044,13.533c-7.843,7.844-12.694,17.826-13.658,28.109c-1.013,10.812,2.331,20.667,9.416,27.753
				c2.9,2.9,6.324,5.18,10.101,6.793l-35.194,35.194l-16.895-16.894l20.351-20.351c2.929-2.93,2.929-7.678,0-10.607
				c-2.929-2.928-7.678-2.928-10.606,0l-20.352,20.352l-2.159-2.159c-2.929-2.928-7.678-2.928-10.606,0l-51.967,51.967
				c-0.01,0.009-37.128,37.128-37.128,37.128l-1.768-1.769c-2.929-2.928-7.678-2.928-10.606,0c-2.929,2.93-2.929,7.678,0,10.607
				l1.768,1.768l-10.606,10.606l-1.768-1.768c-2.929-2.928-7.678-2.928-10.606,0c-2.929,2.93-2.929,7.678,0,10.607l1.767,1.768
				l-10.606,10.605l-1.768-1.768c-2.929-2.928-7.678-2.928-10.606,0c-2.929,2.93-2.929,7.678,0,10.607l1.767,1.768l-10.606,10.605
				l-1.768-1.768c-2.929-2.928-7.678-2.928-10.606,0c-2.929,2.93-2.929,7.678,0,10.607l1.768,1.768l-10.606,10.606l-1.768-1.768
				c-2.929-2.928-7.678-2.928-10.606,0c-2.929,2.93-2.929,7.678,0,10.607l1.767,1.767l-10.606,10.606l-1.768-1.768
				c-2.929-2.928-7.678-2.928-10.606,0c-2.929,2.93-2.929,7.678,0,10.607l1.767,1.768l-10.606,10.606l-1.768-1.769
				c-2.929-2.928-7.678-2.928-10.606,0c-2.929,2.93-2.929,7.678,0,10.607l1.768,1.768L2.197,415.477
				c-2.929,2.93-2.929,7.678,0,10.607l42.426,42.427c1.406,1.406,3.314,2.196,5.303,2.196c1.989,0,3.896-0.79,5.303-2.196
				l178.544-178.544l1.768,1.768c1.464,1.464,3.384,2.196,5.303,2.196c1.919,0,3.839-0.732,5.303-2.196
				c2.929-2.93,2.929-7.678,0-10.607l-1.768-1.768l110.309-110.309c1.407-1.407,2.197-3.314,2.197-5.304
				c0-1.99-0.79-3.896-2.197-5.304l-2.159-2.159l43.303-43.303c9.826-1.184,19.475-5.964,27.045-13.534
				c7.572-7.572,12.343-17.138,13.533-27.043l32.098-32.099C471.439,37.376,471.439,32.628,468.51,29.699z M212.561,226.326
				l10.607,10.606l-10.607,10.606l-10.606-10.606L212.561,226.326z M191.347,247.54l10.606,10.606l-10.606,10.605l-10.606-10.605
				L191.347,247.54z M170.134,268.753l10.606,10.606l-10.606,10.606l-10.606-10.606L170.134,268.753z M148.921,289.966
				l10.606,10.606l-10.606,10.606l-10.606-10.606L148.921,289.966z M127.708,311.18l10.606,10.606l-10.606,10.605l-10.606-10.606
				L127.708,311.18z M106.495,332.393l10.606,10.606l-10.606,10.605l-10.606-10.605L106.495,332.393z M85.282,353.605l10.606,10.606
				l-25.677,25.677c-1.072-2.252-2.513-4.37-4.375-6.231c-1.837-1.837-3.948-3.293-6.224-4.382L85.282,353.605z M44.623,394.265
				c1.417-1.417,3.3-2.196,5.303-2.196c2.003,0,3.887,0.779,5.303,2.195c2.923,2.923,2.924,7.678,0,10.606
				c-1.419,1.418-3.301,2.197-5.303,2.197c-2.003,0-3.886-0.78-5.303-2.197C41.699,401.946,41.699,397.188,44.623,394.265z
				 M49.927,452.601l-31.82-31.82l11.534-11.534c1.071,2.251,2.513,4.369,4.375,6.23c4.25,4.25,9.9,6.591,15.91,6.591
				c6.01,0,11.661-2.341,15.91-6.59l67.17-67.17c0.01-0.01,6.23-6.229,6.23-6.229c1.089,2.276,8.33,9.518,10.607,10.606
				L49.927,452.601z M164.831,337.695c-1.417,1.417-3.3,2.197-5.303,2.197s-3.887-0.78-5.303-2.197
				c-1.417-1.416-2.197-3.3-2.197-5.303c0-2.002,0.779-3.884,2.195-5.301c1.421-1.42,3.303-2.199,5.305-2.199
				c2.003,0,3.886,0.78,5.303,2.197c1.417,1.416,2.197,3.3,2.197,5.303C167.028,334.395,166.248,336.279,164.831,337.695z
				 M179.82,322.707c-1.089-2.276-2.545-4.387-4.382-6.224c-1.837-1.838-3.948-3.294-6.225-4.383l12.456-12.456
				c1.071,2.251,2.513,4.369,4.375,6.23c1.838,1.838,3.948,3.294,6.225,4.383L179.82,322.707z M207.257,295.27
				c-1.417,1.416-3.3,2.196-5.303,2.196c-2.003,0-3.887-0.78-5.304-2.197c-2.924-2.924-2.924-7.682,0-10.605
				c1.417-1.417,3.3-2.196,5.304-2.196c2.003,0,3.887,0.779,5.303,2.195C210.182,287.587,210.182,292.345,207.257,295.27z
				 M228.478,274.049c-0.013,0.014-6.238,6.239-6.238,6.239c-1.072-2.253-2.514-4.371-4.375-6.232
				c-1.838-1.837-3.948-3.293-6.225-4.382l6.215-6.215c0.019-0.019,6.241-6.241,6.241-6.241c1.072,2.252,2.513,4.37,4.375,6.232
				c1.837,1.837,3.948,3.293,6.224,4.382L228.478,274.049z M249.684,252.843c-1.417,1.417-3.3,2.197-5.303,2.197
				c-2.004,0-3.887-0.78-5.303-2.196c-2.924-2.925-2.924-7.684,0-10.607c1.417-1.417,3.3-2.196,5.304-2.196
				c2.003,0,3.887,0.779,5.303,2.195C252.608,245.16,252.608,249.919,249.684,252.843z M264.666,237.861
				c-1.072-2.252-2.514-4.37-4.375-6.232c-4.25-4.249-9.9-6.589-15.91-6.589c-3.411,0-6.696,0.778-9.685,2.207l-11.528-11.527
				l31.82-31.82l31.82,31.82L264.666,237.861z M297.414,205.113l-31.82-31.82l41.365-41.365l31.82,31.819L297.414,205.113z
				 M421.602,69.938c-0.639,6.812-3.952,13.524-9.33,18.902c-5.999,5.998-13.724,9.438-21.194,9.438
				c-3.768,0-9.16-0.901-13.454-5.196c-3.87-3.869-5.676-9.461-5.087-15.745c0.639-6.812,3.952-13.525,9.33-18.902
				c5.999-5.999,13.724-9.438,21.194-9.438c3.768,0,9.16,0.901,13.454,5.196C420.384,58.063,422.191,63.654,421.602,69.938z
				 M433.934,53.668c-1.607-3.746-3.884-7.153-6.812-10.081c-2.9-2.901-6.325-5.181-10.102-6.794l18.686-18.686L452.6,35.002
				L433.934,53.668z"/>
			<circle cx="397.069" cy="73.638" r="7.5"/>
		</g>
	</g>
</g>
<g>
</g>
<g>
</g>
<g>
</g>
<g>
</g>
<g>
</g>
<g>
</g>
<g>
</g>
<g>
</g>
<g>
</g>
<g>
</g>
<g>
</g>
<g>
</g>
<g>
</g>
<g>
</g>
<g>
</g>
</svg>
