<?xml version="1.0" encoding="iso-8859-1"?>
<!-- Generator: Adobe Illustrator 17.1.0, SVG Export Plug-In . SVG Version: 6.00 Build 0)  -->
<!DOCTYPE svg PUBLIC "-//W3C//DTD SVG 1.1//EN" "http://www.w3.org/Graphics/SVG/1.1/DTD/svg11.dtd">
<svg version="1.1" id="Capa_1" xmlns="http://www.w3.org/2000/svg" xmlns:xlink="http://www.w3.org/1999/xlink" x="0px" y="0px"
	 viewBox="0 0 550.033 550.033" style="enable-background:new 0 0 550.033 550.033;" xml:space="preserve">
<path d="M546.692,78.839c-5.09-15.269-15.704-31.489-29.887-45.671c-14.183-14.184-30.402-24.797-45.672-29.887
	c-17.02-5.672-31.241-3.951-40.043,4.849c-3.046,3.045-4.543,7.72-4.576,14.288c-0.18,33.084-13.209,65.063-36.688,90.055
	l-59.785,60.091c-3.089-1.639-6.55-2.511-10.146-2.511c-5.794,0-11.239,2.256-15.332,6.35c-4.095,4.094-6.35,9.539-6.351,15.333
	c0,3.639,0.892,7.139,2.567,10.254l-43.04,43.263l-5.461-5.461l4.763-4.763c2.929-2.93,2.929-7.678,0-10.607
	c-2.93-2.928-7.678-2.928-10.607,0L86.021,384.833c-2.929,2.93-2.929,7.678,0,10.607c1.465,1.464,3.385,2.196,5.304,2.196
	s3.839-0.732,5.304-2.196l14.748-14.749l5.826,5.827l-83.382,83.815c-0.187,0.188-0.363,0.385-0.528,0.591
	c-0.438,0.545-10.827,13.514-19.844,28.3c-14.178,23.251-17.01,37.909-8.914,46.132c3.063,3.11,7.068,4.677,12.134,4.676
	c8.377,0,19.65-4.283,34.345-12.943c15.005-8.843,28.204-19.095,28.759-19.526c0.239-0.188,0.468-0.389,0.684-0.604l239.209-238.395
	c3.227,1.836,6.881,2.832,10.695,2.832h0.001c5.794,0,11.239-2.255,15.333-6.349c4.095-4.096,6.348-9.541,6.344-15.335
	c-0.002-3.787-0.986-7.418-2.802-10.628l28.071-27.971c3.195,1.792,6.804,2.762,10.566,2.764c0.005,0,0.011,0,0.017,0
	c5.787,0,11.227-2.253,15.317-6.344c4.094-4.095,6.349-9.541,6.349-15.334c0-3.739-0.952-7.327-2.719-10.507l31.598-31.498
	c24.587-23.592,56.239-36.649,89.141-36.767c4.191-0.02,10.231-0.511,14.266-4.544C550.643,110.083,552.366,95.862,546.692,78.839z
	 M413.244,164.129l-26.894-26.894l9.42-9.468l26.933,26.933L413.244,164.129z M375.77,147.87l26.85,26.85l-7.172,7.149
	c-0.233-0.087-0.469-0.156-0.704-0.235c-0.168-0.056-0.334-0.116-0.503-0.168c-0.567-0.174-1.137-0.331-1.713-0.458
	c-0.003-0.001-0.007-0.002-0.01-0.002c-0.589-0.129-1.182-0.227-1.776-0.305c-0.158-0.021-0.316-0.034-0.474-0.052
	c-0.441-0.049-0.883-0.085-1.325-0.106c-0.181-0.009-0.362-0.016-0.543-0.02c-0.458-0.011-0.915-0.005-1.373,0.013
	c-0.139,0.006-0.279,0.005-0.418,0.014c-0.597,0.035-1.193,0.093-1.786,0.177c-0.071,0.01-0.142,0.027-0.213,0.038
	c-0.514,0.079-1.025,0.177-1.533,0.292c-0.172,0.039-0.342,0.084-0.513,0.128c-0.42,0.107-0.836,0.226-1.25,0.358
	c-0.172,0.055-0.344,0.108-0.515,0.168c-0.473,0.164-0.941,0.346-1.405,0.543c-0.09,0.039-0.183,0.071-0.273,0.111
	c-0.058,0.026-0.116,0.052-0.174,0.078l9.599-9.6c2.929-2.93,2.929-7.678,0-10.607c-2.93-2.928-7.678-2.928-10.607,0l-38.22,38.221
	c0.011-0.027,0.021-0.054,0.032-0.081c0.041-0.095,0.074-0.192,0.113-0.287c0.197-0.475,0.376-0.955,0.538-1.441
	c0.054-0.163,0.104-0.327,0.154-0.491c0.138-0.449,0.261-0.902,0.37-1.358c0.034-0.145,0.072-0.289,0.103-0.435
	c0.265-1.222,0.426-2.462,0.48-3.709c0.003-0.075,0.002-0.15,0.005-0.225c0.018-0.556,0.015-1.112-0.009-1.668
	c-0.004-0.103-0.009-0.206-0.015-0.309c-0.033-0.593-0.088-1.184-0.17-1.772c-0.004-0.026-0.006-0.052-0.009-0.078
	c-0.183-1.287-0.484-2.559-0.898-3.803c-0.018-0.054-0.038-0.108-0.056-0.162c-0.099-0.29-0.191-0.581-0.302-0.867L375.77,147.87z
	 M295.819,244.354c-1.967,1.968-2.607,4.755-1.931,7.262c-4.47-3.584-9.769-5.64-15.191-6.161l33.351-33.524
	c0.097,0.037,0.196,0.064,0.293,0.1c0.205,0.075,0.412,0.143,0.619,0.212c0.346,0.115,0.694,0.222,1.044,0.319
	c0.217,0.06,0.434,0.118,0.652,0.172c0.357,0.087,0.716,0.162,1.076,0.23c0.208,0.04,0.415,0.083,0.623,0.117
	c0.433,0.07,0.869,0.122,1.305,0.166c0.134,0.013,0.267,0.036,0.401,0.047c0.558,0.045,1.117,0.067,1.676,0.07
	c0.041,0,0.081,0.005,0.122,0.005c0.12,0,0.239-0.015,0.358-0.017c0.473-0.008,0.946-0.029,1.417-0.067
	c0.21-0.017,0.419-0.037,0.629-0.06c0.472-0.052,0.943-0.12,1.411-0.203c0.153-0.027,0.307-0.046,0.459-0.076
	c0.601-0.119,1.196-0.264,1.786-0.433c0.169-0.049,0.336-0.107,0.504-0.159c0.444-0.139,0.884-0.291,1.32-0.458
	c0.189-0.073,0.378-0.146,0.565-0.224c0.105-0.043,0.212-0.08,0.316-0.125L295.819,244.354z M133.368,443.051l-25.689-25.689
	l16.616-16.702c-1.147,6.704,0.845,13.846,6.009,19.011c4.227,4.226,9.778,6.339,15.33,6.339c1.879,0,3.755-0.263,5.583-0.747
	L133.368,443.051z M101.913,474.399l-25.554-25.554l20.74-20.848l25.643,25.643L101.913,474.399z M140.911,399.62
	c1.302-1.303,3.012-1.953,4.723-1.953c1.71,0,3.42,0.65,4.722,1.953c2.604,2.604,2.604,6.841,0,9.444
	c-2.604,2.605-6.842,2.604-9.444,0C138.307,406.46,138.307,402.223,140.911,399.62z M160.963,389.012
	c-5.193-5.191-12.383-7.18-19.119-5.993l22.811-22.929c-1.238,6.774,0.747,14.028,5.974,19.255
	c4.227,4.226,9.778,6.339,15.329,6.339c1.942,0,3.882-0.275,5.767-0.792l-25.187,25.101
	C168.483,402.748,166.637,394.687,160.963,389.012z M181.236,359.294c1.302-1.303,3.012-1.953,4.722-1.953
	c1.711,0,3.421,0.65,4.723,1.953c2.604,2.604,2.604,6.84,0,9.443c-2.603,2.604-6.84,2.605-9.444,0
	C178.632,366.134,178.632,361.898,181.236,359.294z M201.288,348.687c-5.254-5.253-12.557-7.236-19.362-5.958l20.356-20.461
	c0.682,6.286,3.42,12.389,8.228,17.197c5.124,5.124,11.718,7.896,18.436,8.334l-22.126,22.051
	C208.844,362.558,207.01,354.41,201.288,348.687z M217.399,316.318l8.129,8.129c1.465,1.464,3.385,2.196,5.304,2.196
	s3.839-0.732,5.304-2.196c2.929-2.93,2.929-7.678,0-10.607l-8.129-8.129c0.931-0.194,1.877-0.3,2.825-0.3
	c3.519,0,7.037,1.339,9.715,4.017c5.356,5.357,5.356,14.073,0,19.43c-5.355,5.357-14.074,5.357-19.43,0
	C217.717,325.457,216.484,320.706,217.399,316.318z M251.154,298.822L251.154,298.822c-4.847-4.846-11.007-7.591-17.345-8.246
	l13.543-13.614c0.643,6.36,3.392,12.545,8.254,17.407c5.16,5.16,11.81,7.937,18.578,8.344l-14.689,14.639
	C259.078,310.601,256.302,303.97,251.154,298.822z M262.495,271.222l8.129,8.129c1.465,1.464,3.385,2.196,5.304,2.196
	s3.839-0.732,5.304-2.196c2.929-2.93,2.929-7.678,0-10.607l-8.129-8.129c0.931-0.194,1.877-0.3,2.825-0.3
	c3.518,0,7.036,1.339,9.714,4.018c5.357,5.356,5.357,14.073,0,19.43c-5.355,5.357-14.073,5.356-19.429,0.001
	C262.813,280.363,261.579,275.611,262.495,271.222z M315.17,187.008c1.261-1.261,2.939-1.956,4.726-1.956
	c1.787,0,3.466,0.695,4.727,1.957c0.004,0.003,0.007,0.006,0.01,0.009c0.138,0.137,0.27,0.28,0.355,0.379
	c2.238,2.63,2.073,6.607-0.375,9.056c-2.435,2.435-6.392,2.612-9.011,0.401c-0.038-0.031-0.075-0.063-0.113-0.094
	c-0.111-0.09-0.216-0.194-0.319-0.299c-1.262-1.261-1.956-2.939-1.956-4.726C313.213,189.949,313.908,188.27,315.17,187.008z
	 M247.16,255.887l-34.399,34.578l-5.578-5.578l34.488-34.488L247.16,255.887z M121.984,370.086l74.592-74.592l5.606,5.606
	l-74.399,74.785L121.984,370.086z M70.205,505.998c-2.079,1.595-13.149,9.983-25.459,17.367
	c-22.212,13.323-28.742,11.724-29.501,11.452c-0.255-0.773-1.692-7.337,11.865-29.172c7.569-12.19,16.117-23.107,17.639-25.027
	l21.03-21.139l25.509,25.509L70.205,505.998z M304.601,272.401c-0.313-5.512-2.202-10.947-5.666-15.571
	c0.712,0.217,1.45,0.328,2.188,0.328c1.919,0,3.839-0.732,5.304-2.196l4.191-4.191c-0.014,0.032-0.027,0.064-0.041,0.096
	c-0.054,0.121-0.098,0.244-0.15,0.365c-0.18,0.424-0.349,0.851-0.501,1.284c-0.068,0.193-0.129,0.386-0.191,0.581
	c-0.122,0.379-0.232,0.76-0.332,1.145c-0.052,0.197-0.104,0.394-0.15,0.592c-0.104,0.449-0.191,0.901-0.266,1.355
	c-0.021,0.124-0.049,0.247-0.067,0.371c-0.083,0.564-0.141,1.131-0.18,1.7c-0.013,0.192-0.015,0.384-0.023,0.576
	c-0.016,0.393-0.025,0.786-0.02,1.179c0.003,0.223,0.01,0.445,0.019,0.668c0.017,0.382,0.046,0.763,0.082,1.144
	c0.02,0.207,0.035,0.413,0.061,0.619c0.071,0.562,0.157,1.122,0.272,1.679c0.023,0.114,0.057,0.225,0.083,0.338
	c0.102,0.458,0.217,0.914,0.35,1.366c0.062,0.21,0.132,0.418,0.2,0.626c0.066,0.202,0.122,0.406,0.194,0.606L304.601,272.401z
	 M335.087,264.442c-2.606,2.605-6.847,2.605-9.447,0.006c-0.18-0.181-0.357-0.383-0.549-0.628c-2.073-2.642-1.836-6.435,0.552-8.822
	c0.281-0.281,0.584-0.526,0.9-0.747c0.03-0.021,0.058-0.045,0.088-0.065c0.3-0.203,0.615-0.374,0.938-0.523
	c0.052-0.024,0.104-0.05,0.157-0.073c0.312-0.134,0.632-0.24,0.958-0.325c0.072-0.019,0.143-0.037,0.215-0.053
	c0.314-0.071,0.633-0.118,0.953-0.143c0.089-0.007,0.178-0.01,0.267-0.013c0.193-0.007,0.386,0.007,0.58,0.016
	c0.215,0.011,0.431,0.021,0.645,0.053c0.147,0.021,0.291,0.06,0.437,0.092c0.229,0.05,0.459,0.098,0.684,0.173
	c0.13,0.043,0.255,0.105,0.383,0.157c0.228,0.092,0.457,0.179,0.677,0.297c0.2,0.108,0.388,0.245,0.579,0.375
	c0.139,0.094,0.284,0.17,0.418,0.276c0.159,0.124,0.344,0.291,0.55,0.497c0.002,0.002,0.005,0.005,0.007,0.007
	c1.263,1.263,1.959,2.941,1.96,4.727C337.04,261.506,336.347,263.182,335.087,264.442z M337.767,239.338
	c-0.222-0.081-0.448-0.144-0.671-0.217c-0.183-0.06-0.365-0.123-0.55-0.178c-0.511-0.152-1.025-0.286-1.544-0.399
	c-0.058-0.013-0.115-0.03-0.173-0.042c-0.568-0.119-1.14-0.209-1.714-0.282c-0.192-0.024-0.385-0.039-0.578-0.059
	c-0.397-0.04-0.793-0.07-1.191-0.088c-0.213-0.01-0.426-0.017-0.64-0.02c-0.406-0.006-0.812,0.002-1.218,0.018
	c-0.183,0.008-0.365,0.009-0.548,0.021c-0.571,0.038-1.141,0.095-1.708,0.178c-0.132,0.019-0.262,0.049-0.394,0.071
	c-0.447,0.073-0.891,0.158-1.333,0.26c-0.203,0.047-0.405,0.101-0.607,0.153c-0.379,0.098-0.755,0.207-1.128,0.326
	c-0.2,0.064-0.4,0.126-0.598,0.196c-0.426,0.15-0.846,0.315-1.263,0.492c-0.129,0.054-0.26,0.101-0.388,0.158
	c-0.036,0.016-0.072,0.031-0.108,0.048l22.392-22.392c0.365-0.253,0.716-0.536,1.041-0.861c0.326-0.326,0.609-0.677,0.862-1.042
	l22.417-22.418c-0.023,0.052-0.045,0.103-0.068,0.155c-0.042,0.095-0.076,0.192-0.117,0.287c-0.196,0.459-0.376,0.922-0.539,1.391
	c-0.057,0.166-0.11,0.332-0.163,0.499c-0.136,0.426-0.259,0.855-0.369,1.287c-0.039,0.154-0.08,0.306-0.115,0.461
	c-0.131,0.567-0.243,1.137-0.328,1.711c-0.001,0.008-0.003,0.016-0.004,0.023c-0.09,0.617-0.15,1.236-0.186,1.858
	c-0.005,0.08-0.005,0.16-0.009,0.24c-0.025,0.531-0.031,1.063-0.017,1.595c0.003,0.114,0.007,0.228,0.012,0.342
	c0.023,0.551,0.065,1.102,0.13,1.651c0.006,0.052,0.01,0.105,0.017,0.158c0.157,1.253,0.427,2.494,0.805,3.712
	c0.017,0.055,0.036,0.109,0.054,0.163c0.095,0.299,0.185,0.599,0.294,0.895L337.767,239.338z M392.6,206.928
	c-1.258,1.258-2.931,1.95-4.711,1.95c-0.001,0-0.003,0-0.005,0c-1.785-0.001-3.465-0.698-4.728-1.962
	c-0.192-0.191-0.373-0.393-0.506-0.556c-2.119-2.653-1.901-6.47,0.507-8.878c0.285-0.285,0.594-0.535,0.914-0.759
	c0.028-0.02,0.055-0.042,0.083-0.061c0.307-0.208,0.629-0.382,0.959-0.534c0.047-0.021,0.093-0.045,0.14-0.065
	c0.323-0.139,0.655-0.249,0.992-0.335c0.059-0.015,0.117-0.03,0.176-0.043c0.334-0.076,0.673-0.125,1.013-0.148
	c0.062-0.004,0.125-0.006,0.188-0.009c0.24-0.01,0.479,0.008,0.718,0.024c0.17,0.011,0.341,0.018,0.51,0.042
	c0.217,0.031,0.43,0.087,0.644,0.14c0.161,0.04,0.324,0.071,0.483,0.123c0.229,0.076,0.45,0.181,0.672,0.283
	c0.135,0.062,0.274,0.11,0.406,0.181c0.326,0.177,0.639,0.386,0.94,0.623c0.021,0.016,0.044,0.027,0.064,0.043
	c0.187,0.149,0.362,0.308,0.539,0.485c0.001,0,0.001,0,0.001,0c1.261,1.261,1.955,2.939,1.955,4.727S393.862,205.666,392.6,206.928z
	 M531.505,107.998c-0.396,0.134-1.529,0.42-3.988,0.431c-34.346,0.123-67.428,12.824-93.956,35.913l-27.522-27.522
	c22.745-26.813,35.29-60.006,35.476-94.324c0.013-2.468,0.316-3.626,0.45-4.018c4.591-4.265,13.456-4.622,24.426-0.967
	c13.103,4.367,27.24,13.694,39.809,26.263c12.568,12.567,21.896,26.705,26.263,39.809
	C536.115,94.541,535.76,103.404,531.505,107.998z M444.311,95.53c-1.953,3.841-4.141,7.199-6.502,9.984
	c-1.483,1.749-3.598,2.649-5.725,2.649c-1.714,0-3.437-0.584-4.847-1.779c-3.159-2.68-3.549-7.412-0.87-10.571
	c1.586-1.87,3.167-4.319,4.572-7.082c1.879-3.692,6.396-5.161,10.085-3.286C444.718,87.323,446.188,91.838,444.311,95.53z
	 M462.017,27.007c-0.14,1.854-0.238,3.895-0.344,6.055c-0.504,10.368-1.132,23.273-6.738,37.679
	c-1.187,3.048-2.583,6.047-4.15,8.913c-1.363,2.491-3.935,3.901-6.587,3.901c-1.217,0-2.45-0.296-3.593-0.921
	c-3.634-1.988-4.968-6.546-2.98-10.18c1.259-2.3,2.379-4.707,3.332-7.154c4.722-12.132,5.26-23.201,5.734-32.967
	c0.11-2.262,0.214-4.397,0.367-6.447c0.311-4.131,3.897-7.215,8.04-6.919C459.229,19.277,462.326,22.876,462.017,27.007z
	 M77.888,491.721l-12.58,12.58c-1.407,1.406-3.314,2.196-5.304,2.196s-3.897-0.79-5.304-2.197l-8.221-8.222
	c-2.929-2.929-2.929-7.677,0-10.606l12.58-12.58c1.407-1.406,3.314-2.196,5.304-2.196c1.989,0,3.897,0.79,5.304,2.197l8.221,8.222
	C80.816,484.043,80.816,488.791,77.888,491.721z"/>
<g>
</g>
<g>
</g>
<g>
</g>
<g>
</g>
<g>
</g>
<g>
</g>
<g>
</g>
<g>
</g>
<g>
</g>
<g>
</g>
<g>
</g>
<g>
</g>
<g>
</g>
<g>
</g>
<g>
</g>
</svg>
