<?xml version="1.0" encoding="iso-8859-1"?>
<!-- Generator: Adobe Illustrator 19.0.0, SVG Export Plug-In . SVG Version: 6.00 Build 0)  -->
<svg version="1.1" id="Layer_1" xmlns="http://www.w3.org/2000/svg" xmlns:xlink="http://www.w3.org/1999/xlink" x="0px" y="0px"
	 viewBox="0 0 512 512" style="enable-background:new 0 0 512 512;" xml:space="preserve">
<g>
	<g>
		<path d="M278.756,0v34.133h5.689v147.911h-22.756V168.77c0-25.095-20.416-45.511-45.511-45.511
			c-23.816,0-43.406,18.393-45.34,41.719h-0.171c0,3.083-2.606,5.689-5.689,5.689h-22.756L119.467,204.8h45.511
			c20.678,0,37.721-15.845,39.637-36.03h0.185c0-6.168,5.21-11.378,11.378-11.378s11.378,5.21,11.378,11.378v42.992l36.502,243.349
			h20.387V512h102.4V34.133h5.689V0H278.756z M284.444,360.92l-21.711-144.742h21.711V360.92z M352.711,477.867h-34.133v-22.756
			h34.133V477.867z M352.711,233.244c-9.425,0-17.067,7.641-17.067,17.067s7.641,17.067,17.067,17.067v11.378
			c-9.425,0-17.067,7.641-17.067,17.067c0,9.425,7.641,17.067,17.067,17.067v11.378c-9.425,0-17.067,7.641-17.067,17.067
			c0,9.425,7.641,17.067,17.067,17.067v11.378c-9.425,0-17.067,7.641-17.067,17.067c0,9.425,7.641,17.067,17.067,17.067v17.067
			h-34.133v-204.8h34.133V233.244z M352.711,182.044h-34.133V34.133h34.133V182.044z"/>
	</g>
</g>
<g>
</g>
<g>
</g>
<g>
</g>
<g>
</g>
<g>
</g>
<g>
</g>
<g>
</g>
<g>
</g>
<g>
</g>
<g>
</g>
<g>
</g>
<g>
</g>
<g>
</g>
<g>
</g>
<g>
</g>
</svg>
