<svg data-v-423bf9ae="" xmlns="http://www.w3.org/2000/svg" viewBox="0 0 368 90" class="iconLeft"><!----><!----><!----><g data-v-423bf9ae="" id="80887bb7-fc26-4987-a3ec-66d3e7d55cda" fill="#FFFFFF" transform="matrix(6.1412482261657715,0,0,6.1412482261657715,115.73625183105469,-27.927322387695312)"><path d="M8.58 6.99C7.57 6.99 6.78 7.48 6.38 8.27C6.02 7.46 5.28 6.99 4.31 6.99C3.44 6.99 2.72 7.36 2.31 8.04L2.31 7.11L0.88 7.11L0.88 14L2.31 14L2.31 9.67C2.31 8.74 2.87 8.13 3.77 8.13C4.68 8.13 5.21 8.74 5.21 9.67L5.21 14L6.65 14L6.65 9.67C6.65 8.74 7.21 8.13 8.11 8.13C9.00 8.13 9.55 8.74 9.55 9.67L9.55 14L10.98 14L10.98 9.49C10.98 7.98 10.00 6.99 8.58 6.99ZM18.82 7.11L17.39 7.11L17.39 11.16C17.39 12.24 16.70 12.94 15.67 12.94C14.63 12.94 13.96 12.24 13.96 11.16L13.96 7.11L12.53 7.11L12.53 11.16C12.53 12.92 13.80 14.13 15.68 14.13C17.54 14.13 18.82 12.92 18.82 11.16ZM23.07 6.99C21.46 6.99 20.37 7.81 20.37 9.06C20.37 10.68 22.01 10.99 23.04 11.14C23.83 11.28 24.51 11.40 24.51 12.11C24.51 12.68 23.94 13.06 23.14 13.06C22.29 13.06 21.67 12.63 21.64 11.97L20.24 11.97C20.26 13.24 21.43 14.13 23.10 14.13C24.75 14.13 25.93 13.27 25.93 12.03C25.93 10.37 24.19 10.08 23.21 9.90C22.41 9.74 21.78 9.63 21.78 8.92C21.78 8.40 22.32 8.04 23.04 8.04C23.84 8.04 24.39 8.46 24.42 9.07L25.76 9.07C25.76 7.84 24.64 6.99 23.07 6.99ZM32.14 7.11L30.02 11.80L27.86 7.11L26.33 7.11L29.34 13.23L27.55 16.76L29.06 16.76L33.64 7.11ZM38.25 6.99C37.30 6.99 36.53 7.41 36.08 8.15L36.08 7.11L34.65 7.11L34.65 14L36.08 14L36.08 9.97C36.08 8.86 36.76 8.13 37.83 8.13C38.86 8.13 39.54 8.86 39.54 9.97L39.54 14L40.98 14L40.98 9.77C40.98 8.11 39.83 6.99 38.25 6.99Z"></path></g><!----><g data-v-423bf9ae="" id="b5c2d8ba-5562-4394-989e-9ba8f004dff3" transform="matrix(1.2601927518844604,0,0,1.2601927518844604,-11.008538246154785,-17.794584274291992)" stroke="none" fill="#50C1AE"><circle cx="42.692" cy="80.595" r="3.888"></circle><path d="M47.234 63.9c-2.255-2.058-3.994-8.579 2.516-10.977 6.207-2.287 13.525 12.121 1.83 15.094-12.603 3.204-18.063-19.139-6.175-27.443 31.126-21.742-3.546-40.633-.124-9.834 5.776 42.406 6.482 41.893 6.698 47.784.15 4.093-2.425 7.332-6.77 6.417-1.409-.297.298-1.566.229-1.601-1.372-.686-3.016 1.147-4.117.915 8.69 4.803 11.756-1.338 11.507-5.946-.173-3.197-5.104-47.366-5.104-48.661 0-13.264 7.972-11.663 7.286-5.489S40.145 40.573 36.486 48.12s-2.884 17.575 8.462 21.269c11.238 3.659 21.758-9.148 16.269-16.009-8.306-10.382-24.013 2.744-13.983 10.52zM38.43 27.664H21.825a1.384 1.384 0 1 1 0-2.768H38.43a1.384 1.384 0 1 1 0 2.768zM77.175 27.664H63.337a1.384 1.384 0 1 1 0-2.768h13.837a1.384 1.384 0 0 1 .001 2.768zM34.279 40.117H14.906a1.384 1.384 0 1 1 0-2.768h19.372a1.384 1.384 0 0 1 .001 2.768z"></path><path d="M84.094 40.117H55.035a1.384 1.384 0 1 1 0-2.768h29.059a1.384 1.384 0 1 1 0 2.768zM27.36 52.571H10.755a1.384 1.384 0 1 1 0-2.768H27.36a1.384 1.384 0 1 1 0 2.768zM88.245 52.571H67.489a1.384 1.384 0 1 1 0-2.768h20.756a1.384 1.384 0 1 1 0 2.768zM30.128 65.025H16.29a1.384 1.384 0 1 1 0-2.768h13.837a1.384 1.384 0 0 1 .001 2.768zM84.094 65.025H67.489a1.384 1.384 0 1 1 0-2.768h16.605a1.384 1.384 0 1 1 0 2.768zM32.895 77.479h-9.686a1.384 1.384 0 1 1 0-2.768h9.686a1.384 1.384 0 1 1 0 2.768z"></path><g><path d="M75.791 77.479H60.57a1.384 1.384 0 1 1 0-2.768h15.221a1.384 1.384 0 1 1 0 2.768z"></path></g></g><!----></svg>